<svg width="412" height="156" viewBox="0 0 412 156" fill="none" xmlns="http://www.w3.org/2000/svg">
<g clip-path="url(#clip0_120_417)">
<path d="M23.5 102.549H27V77.1014C27 72.9369 28.6844 68.882 31.6156 65.9449L49.9688 47.5553C52.9 44.6183 56.9688 42.9306 61.1031 42.9306H69V34.1632C69 27.3904 74.4906 21.8889 81.25 21.8889H147.75C154.509 21.8889 160 27.3904 160 34.1632V100.795C160 107.568 154.509 113.069 147.75 113.069H146C146 124.686 136.594 134.111 125 134.111C113.406 134.111 104 124.686 104 113.069H76C76 124.686 66.5938 134.111 55 134.111C43.4063 134.111 34 124.686 34 113.069H23.5C21.575 113.069 20 111.491 20 109.563V106.056C20 104.127 21.575 102.549 23.5 102.549ZM125 123.59C130.797 123.59 135.5 118.878 135.5 113.069C135.5 107.261 130.797 102.549 125 102.549C119.203 102.549 114.5 107.261 114.5 113.069C114.5 118.878 119.203 123.59 125 123.59ZM79.5 102.549H106.909C110.541 96.28 117.234 92.0278 125 92.0278C132.766 92.0278 139.459 96.28 143.091 102.549H147.75C148.713 102.549 149.5 101.76 149.5 100.795V34.1632C149.5 33.1988 148.713 32.4097 147.75 32.4097H81.25C80.2875 32.4097 79.5 33.1988 79.5 34.1632V102.549ZM69 53.4514H61.1031C59.725 53.4514 58.3688 54.0213 57.3844 54.9857L41.4157 70.9861H69V53.4514ZM55 123.59C60.7969 123.59 65.5 118.878 65.5 113.069C65.5 107.261 60.7969 102.549 55 102.549C49.2031 102.549 44.5 107.261 44.5 113.069C44.5 118.878 49.2031 123.59 55 123.59ZM37.5 101.475C41.2625 95.7978 47.6938 92.0278 55 92.0278C60.4031 92.0278 65.2813 94.132 69 97.4855V81.507H37.5V101.475Z" fill="#FFB4A2"/>
<path d="M153.067 103.649C150.547 102.521 147.589 103.65 146.461 106.171C145.333 108.691 146.462 111.649 148.982 112.777L153.067 103.649ZM190.958 131.564C193.478 132.692 196.436 131.563 197.564 129.043C198.692 126.522 197.563 123.564 195.043 122.436L190.958 131.564ZM148.982 112.777L190.958 131.564L195.043 122.436L153.067 103.649L148.982 112.777Z" fill="#FFB4A2"/>
<g clip-path="url(#clip1_120_417)">
<path d="M200.916 72.6178C202.241 69.9583 204.651 72.0162 206.404 68.4989C207.436 69.0132 207.895 72.4011 206.762 74.6745C205.63 76.9478 203.827 77.4952 202.3 76.7345C200.773 75.9737 200.157 74.1405 200.916 72.6178ZM213.309 82.2205C214.836 82.9813 216.639 82.4339 217.772 80.1605C218.904 77.8872 218.445 74.4993 217.413 73.9849C215.661 77.5022 213.25 75.4444 211.925 78.1038C211.166 79.6265 211.783 81.4598 213.309 82.2205ZM214.043 101.434L203.783 122.023L165.25 102.821L175.51 82.2324C176.643 79.9591 179.411 79.0361 181.69 80.1719L183.755 81.2005L188.543 71.5924L192.671 73.6496L187.883 83.2578L194.764 86.6866L199.552 77.0784L203.68 79.1357L198.892 88.7439L205.773 92.1727L210.561 82.5645L214.69 84.6217L209.902 94.2299L211.966 95.2586C214.245 96.3943 215.175 99.1603 214.043 101.434ZM179.382 84.8044L176.953 89.6798C177.372 90.6383 177.703 91.464 178.69 91.956C180.873 93.0437 182.65 90.5022 186.488 92.4146C190.27 94.2993 189.399 97.2922 191.527 98.3529C193.728 99.4496 195.481 96.8961 199.325 98.8114C203.15 100.718 202.199 103.671 204.386 104.76C205.354 105.243 206.21 105.007 207.229 104.765L209.657 99.8918C209.725 99.7552 209.736 99.5972 209.687 99.4525C209.639 99.3077 209.535 99.1881 209.398 99.1199L180.155 84.5469C180.018 84.4787 179.859 84.4675 179.715 84.5158C179.57 84.5641 179.45 84.6679 179.382 84.8044ZM201.706 115.848L205.163 108.91C204.437 108.86 203.619 108.662 202.676 108.192C198.845 106.283 199.796 103.33 197.615 102.243C195.452 101.165 193.638 103.688 189.817 101.784C186.035 99.8996 186.906 96.9067 184.778 95.8461C182.577 94.7494 180.824 97.3028 176.98 95.3875C176.027 94.9125 175.371 94.3739 174.89 93.8197L171.431 100.761L201.706 115.848ZM191.291 71.2484C192.817 72.0092 194.62 71.4618 195.753 69.1884C196.886 66.9151 196.427 63.5271 195.395 63.0128C193.642 66.5301 191.232 64.4723 189.906 67.1317C189.148 68.6544 189.764 70.4876 191.291 71.2484Z" fill="#FFB4A2"/>
</g>
<g clip-path="url(#clip2_120_417)">
<path d="M395.47 71.7183L380 58.9975V33.625C380 33.0614 379.776 32.5209 379.378 32.1224C378.979 31.7239 378.439 31.5 377.875 31.5H369.375C368.819 31.5034 368.287 31.7244 367.892 32.1157C367.498 32.507 367.272 33.0374 367.263 33.5931V48.5266L330.028 17.9531C327.353 15.7256 323.981 14.5059 320.5 14.5059C317.019 14.5059 313.648 15.7256 310.972 17.9531L245.53 71.7183C245.102 72.0765 244.749 72.5155 244.49 73.0103C244.232 73.5051 244.074 74.0459 244.024 74.6018C243.975 75.1578 244.036 75.718 244.203 76.2506C244.37 76.7831 244.641 77.2775 244.999 77.7055L247.719 80.9726C248.442 81.8363 249.479 82.3774 250.601 82.477C251.723 82.5766 252.839 82.2266 253.703 81.5039L261 75.5114V125C261.006 127.252 261.904 129.411 263.497 131.003C265.089 132.596 267.248 133.494 269.5 133.5H303.5C305.753 133.494 307.911 132.596 309.504 131.003C311.096 129.411 311.994 127.252 312 125V97.375H329V125C329.006 127.252 329.904 129.411 331.497 131.003C333.089 132.596 335.248 133.494 337.5 133.5H371.5C373.742 133.495 375.892 132.607 377.483 131.028C379.074 129.448 379.979 127.305 380 125.064V75.5061L387.313 81.5145C388.177 82.2373 389.293 82.5873 390.415 82.4877C391.537 82.388 392.574 81.8469 393.297 80.9833L396.015 77.7187C396.374 77.2896 396.645 76.7936 396.813 76.2593C396.98 75.725 397.04 75.1629 396.989 74.6053C396.939 74.0478 396.779 73.5057 396.518 73.0102C396.257 72.5148 395.901 72.0757 395.47 71.7183ZM367.21 120.75H341.75V93.125C341.744 90.8726 340.846 88.7142 339.254 87.1216C337.661 85.5289 335.503 84.6313 333.25 84.625H307.75C305.498 84.6313 303.339 85.5289 301.747 87.1216C300.154 88.7142 299.256 90.8726 299.25 93.125V120.75H273.75V65.0405L320.5 26.6258L367.25 65.0245L367.21 120.75Z" fill="#FFB4A2"/>
</g>
</g>
<defs>
<clipPath id="clip0_120_417">
<rect width="412" height="156" fill="white"/>
</clipPath>
<clipPath id="clip1_120_417">
<rect width="72.2732" height="72.2732" fill="white" transform="translate(179.234 42) rotate(26.4876)"/>
</clipPath>
<clipPath id="clip2_120_417">
<rect width="153" height="136" fill="white" transform="translate(244 6)"/>
</clipPath>
</defs>
</svg>
