<svg width="295" height="156" viewBox="0 0 295 156" fill="none" xmlns="http://www.w3.org/2000/svg">
<g clip-path="url(#clip0_115_538)">
<path d="M156.5 90.5487H153V65.1014C153 60.9369 151.316 56.882 148.384 53.9449L130.031 35.5554C127.1 32.6183 123.031 30.9306 118.897 30.9306H111V22.1632C111 15.3904 105.509 9.88892 98.75 9.88892H46.25C39.4906 9.88892 34 15.3904 34 22.1632V30.9306H21.75C20.7875 30.9306 20 31.7197 20 32.6841V36.191C20 37.1554 20.7875 37.9445 21.75 37.9445H74.25C75.2125 37.9445 76 37.1554 76 36.191V32.6841C76 31.7197 75.2125 30.9306 74.25 30.9306H44.5V22.1632C44.5 21.1988 45.2875 20.4098 46.25 20.4098H98.75C99.7125 20.4098 100.5 21.1988 100.5 22.1632V90.5487H73.0906C69.4594 84.28 62.7656 80.0278 55 80.0278C51.15 80.0278 47.6062 81.1457 44.5 82.943V73.0139H34V101.07C34 112.686 43.4062 122.111 55 122.111C66.5937 122.111 76 112.686 76 101.07H104C104 112.686 113.406 122.111 125 122.111C136.594 122.111 146 112.686 146 101.07H156.5C158.425 101.07 160 99.4914 160 97.5626V94.0556C160 92.1268 158.425 90.5487 156.5 90.5487ZM55 111.59C49.2031 111.59 44.5 106.878 44.5 101.07C44.5 95.2611 49.2031 90.5487 55 90.5487C60.7969 90.5487 65.5 95.2611 65.5 101.07C65.5 106.878 60.7969 111.59 55 111.59ZM111 41.4514H118.897C120.275 41.4514 121.631 42.0213 122.616 42.9857L138.584 58.9862H111V41.4514ZM125 111.59C119.203 111.59 114.5 106.878 114.5 101.07C114.5 95.2611 119.203 90.5487 125 90.5487C130.797 90.5487 135.5 95.2611 135.5 101.07C135.5 106.878 130.797 111.59 125 111.59ZM142.5 89.4747C138.737 83.7978 132.306 80.0278 125 80.0278C119.597 80.0278 114.719 82.132 111 85.4855V69.507H142.5V89.4747ZM76 64.2466V60.7396C76 59.7752 75.2125 58.9862 74.25 58.9862H21.75C20.7875 58.9862 20 59.7752 20 60.7396V64.2466C20 65.211 20.7875 66 21.75 66H74.25C75.2125 66 76 65.211 76 64.2466ZM81.25 51.9723C82.2125 51.9723 83 51.1832 83 50.2188V46.7118C83 45.7474 82.2125 44.9584 81.25 44.9584H28.75C27.7875 44.9584 27 45.7474 27 46.7118V50.2188C27 51.1832 27.7875 51.9723 28.75 51.9723H81.25Z" fill="#FFB4A2"/>
<path d="M10.2859 130C12.495 130 14.2859 128.209 14.2859 126C14.2859 123.791 12.495 122 10.2859 122V130ZM24.8576 122C22.6484 122 20.8576 123.791 20.8576 126C20.8576 128.209 22.6484 130 24.8576 130V122ZM39.4293 130C41.6384 130 43.4293 128.209 43.4293 126C43.4293 123.791 41.6384 122 39.4293 122V130ZM54.001 122C51.7918 122 50.001 123.791 50.001 126C50.001 128.209 51.7918 130 54.001 130V122ZM68.5727 130C70.7818 130 72.5727 128.209 72.5727 126C72.5727 123.791 70.7818 122 68.5727 122V130ZM83.1444 122C80.9352 122 79.1444 123.791 79.1444 126C79.1444 128.209 80.9352 130 83.1444 130V122ZM97.7161 130C99.9252 130 101.716 128.209 101.716 126C101.716 123.791 99.9252 122 97.7161 122V130ZM112.288 122C110.079 122 108.288 123.791 108.288 126C108.288 128.209 110.079 130 112.288 130V122ZM127.26 130C129.469 130 131.26 128.209 131.26 126C131.26 123.791 129.469 122 127.26 122V130ZM142.634 122C140.425 122 138.634 123.791 138.634 126C138.634 128.209 140.425 130 142.634 130V122ZM158.007 130C160.216 130 162.007 128.209 162.007 126C162.007 123.791 160.216 122 158.007 122V130ZM173.38 122C171.171 122 169.38 123.791 169.38 126C169.38 128.209 171.171 130 173.38 130V122ZM188.188 130C190.397 130 192.188 128.209 192.188 126C192.188 123.791 190.397 122 188.188 122V130ZM202.43 122C200.22 122 198.43 123.791 198.43 126C198.43 128.209 200.22 130 202.43 130V122ZM216.671 130C218.88 130 220.671 128.209 220.671 126C220.671 123.791 218.88 122 216.671 122V130ZM230.913 122C228.704 122 226.913 123.791 226.913 126C226.913 128.209 228.704 130 230.913 130V122ZM245.154 130C247.364 130 249.154 128.209 249.154 126C249.154 123.791 247.364 122 245.154 122V130ZM259.396 122C257.187 122 255.396 123.791 255.396 126C255.396 128.209 257.187 130 259.396 130V122ZM273.638 130C275.847 130 277.638 128.209 277.638 126C277.638 123.791 275.847 122 273.638 122V130ZM287.879 122C285.67 122 283.879 123.791 283.879 126C283.879 128.209 285.67 130 287.879 130V122ZM3 130H10.2859V122H3V130ZM24.8576 130H39.4293V122H24.8576V130ZM54.001 130H68.5727V122H54.001V130ZM83.1444 130H97.7161V122H83.1444V130ZM112.288 130H119.574V122H112.288V130ZM119.574 130H127.26V122H119.574V130ZM142.634 130H158.007V122H142.634V130ZM173.38 130H181.067V122H173.38V130ZM181.067 130H188.188V122H181.067V130ZM202.43 130H216.671V122H202.43V130ZM230.913 130H245.154V122H230.913V130ZM259.396 130H273.638V122H259.396V130ZM287.879 130H295V122H287.879V130Z" fill="#FFB4A2"/>
<path d="M-10 151H295M-10 102H295" stroke="#FFB4A2" stroke-width="4" stroke-linecap="round"/>
<g clip-path="url(#clip1_115_538)">
<path d="M268.003 74.6594L258.464 63.5907H259.375C260.973 63.5907 262.434 62.6625 263.122 61.2016C263.792 59.7407 263.569 58.0219 262.52 56.8016L253.136 45.7157H255.25C256.883 45.7157 258.361 44.7532 259.014 43.275C259.667 41.7797 259.392 40.0438 258.309 38.8407L233.577 11.3063C232.013 9.57035 229.005 9.57035 227.441 11.3063L202.691 38.8235C201.608 40.0438 201.333 41.7797 201.986 43.2579C202.656 44.7532 204.134 45.6985 205.75 45.6985H207.847L198.463 56.7844C197.431 58.0047 197.191 59.7235 197.861 61.1844C198.531 62.6453 199.992 63.5735 201.608 63.5735H202.519L192.997 74.6594C191.948 75.8797 191.708 77.6157 192.378 79.0766C193.048 80.5375 194.509 81.4828 196.125 81.4828H225V85.6938L219.792 94.0125C218.881 95.8344 220.205 98 222.25 98H238.75C240.795 98 242.119 95.8516 241.208 94.0125L236 85.6938V81.4828H264.875C266.491 81.4828 267.952 80.5375 268.622 79.0766C269.292 77.6157 269.052 75.8797 268.003 74.6594ZM205.131 73.2328L220.531 55.3407H210.511L225.636 37.4485H214.997L230.5 20.2266L245.986 37.4485H235.347L250.472 55.3407H240.469L255.886 73.2328H205.131Z" fill="#FFB4A2"/>
</g>
</g>
<defs>
<clipPath id="clip0_115_538">
<rect width="295" height="156" fill="white"/>
</clipPath>
<clipPath id="clip1_115_538">
<rect width="77" height="88" fill="white" transform="translate(192 10)"/>
</clipPath>
</defs>
</svg>
