<svg width="40" height="40" viewBox="0 0 40 40" fill="none" xmlns="http://www.w3.org/2000/svg">
<path d="M19.9905 3.33337C16.6942 3.33337 13.4718 4.31086 10.731 6.14221C7.9902 7.97357 5.854 10.5765 4.59253 13.622C3.33107 16.6674 3.00102 20.0185 3.64411 23.2515C4.28719 26.4846 5.87454 29.4543 8.20541 31.7852C10.5363 34.116 13.506 35.7034 16.739 36.3465C19.972 36.9896 23.3231 36.6595 26.3686 35.398C29.414 34.1366 32.017 32.0004 33.8484 29.2595C35.6797 26.5187 36.6572 23.2964 36.6572 20C36.6574 17.8113 36.2264 15.6439 35.3889 13.6218C34.5514 11.5996 33.3237 9.7622 31.776 8.21452C30.2284 6.66684 28.391 5.43919 26.3688 4.60168C24.3466 3.76416 22.1793 3.33319 19.9905 3.33337ZM25.2897 28.5875C25.2273 28.743 25.1324 28.8835 25.0113 28.9993C24.8902 29.1152 24.7458 29.2038 24.5876 29.2593C24.4295 29.3148 24.2613 29.3358 24.0944 29.321C23.9274 29.3062 23.7656 29.2558 23.6197 29.1733L19.0953 25.6577L16.1914 28.3367C16.124 28.3865 16.0452 28.4185 15.9622 28.4299C15.8792 28.4412 15.7947 28.4315 15.7164 28.4016L16.2731 23.4208L16.2909 23.435L16.3023 23.3366C16.3023 23.3366 24.4439 15.9241 24.7756 15.6083C25.1114 15.2933 25.0006 15.225 25.0006 15.225C25.0197 14.8408 24.3981 15.225 24.3981 15.225L13.6105 22.165L9.11804 20.635C9.11804 20.635 8.42804 20.3875 8.36304 19.8434C8.29471 19.3034 9.14053 19.01 9.14053 19.01L27.0022 11.9142C27.0022 11.9142 28.4705 11.26 28.4705 12.3434L25.2897 28.5875Z" fill="white"/>
</svg>
