<svg width="463" height="156" viewBox="0 0 463 156" fill="none" xmlns="http://www.w3.org/2000/svg">
<g clip-path="url(#clip0_120_418)">
<path d="M439.5 95.5487H436V70.1014C436 65.9369 434.316 61.882 431.384 58.9449L413.031 40.5554C410.1 37.6183 406.031 35.9306 401.897 35.9306H394V27.1632C394 20.3904 388.509 14.8889 381.75 14.8889H315.25C308.491 14.8889 303 20.3904 303 27.1632V93.7952C303 100.568 308.491 106.07 315.25 106.07H317C317 117.686 326.406 127.111 338 127.111C349.594 127.111 359 117.686 359 106.07H387C387 117.686 396.406 127.111 408 127.111C419.594 127.111 429 117.686 429 106.07H439.5C441.425 106.07 443 104.491 443 102.563V99.0556C443 97.1268 441.425 95.5487 439.5 95.5487ZM338 116.59C332.203 116.59 327.5 111.878 327.5 106.07C327.5 100.261 332.203 95.5487 338 95.5487C343.797 95.5487 348.5 100.261 348.5 106.07C348.5 111.878 343.797 116.59 338 116.59ZM383.5 95.5487H356.091C352.459 89.28 345.766 85.0278 338 85.0278C330.234 85.0278 323.541 89.28 319.909 95.5487H315.25C314.287 95.5487 313.5 94.7596 313.5 93.7952V27.1632C313.5 26.1988 314.287 25.4098 315.25 25.4098H381.75C382.712 25.4098 383.5 26.1988 383.5 27.1632V95.5487ZM394 46.4514H401.897C403.275 46.4514 404.631 47.0213 405.616 47.9857L421.584 63.9862H394V46.4514ZM408 116.59C402.203 116.59 397.5 111.878 397.5 106.07C397.5 100.261 402.203 95.5487 408 95.5487C413.797 95.5487 418.5 100.261 418.5 106.07C418.5 111.878 413.797 116.59 408 116.59ZM425.5 94.4747C421.737 88.7978 415.306 85.0278 408 85.0278C402.597 85.0278 397.719 87.132 394 90.4855V74.507H425.5V94.4747Z" fill="#FFB4A2"/>
<g clip-path="url(#clip1_120_418)">
<path d="M177.335 46.4124C177.335 41.3053 181.478 37.1618 186.585 37.1618C191.692 37.1618 195.836 41.3053 195.836 46.4124C195.836 51.5195 191.692 55.663 186.585 55.663C181.478 55.663 177.335 51.5195 177.335 46.4124ZM171.167 131.209C171.167 133.753 173.249 135.835 175.793 135.835C178.337 135.835 180.418 133.773 180.418 131.209V112.727C178.105 110.897 171.264 105.443 171.167 105.366V131.209ZM280.183 103.702L281.783 109.657C281.995 110.486 281.513 111.333 280.684 111.545L238.774 125.563C237.791 131.383 232.761 135.835 226.652 135.835C219.849 135.835 214.318 130.304 214.318 123.501C214.318 119.338 216.399 115.657 219.56 113.421L214.028 92.6653H199.652C197.165 92.6653 194.911 91.1621 193.947 88.8494L189.669 78.5389V100.393L197.011 106.194C198.938 107.717 200.288 109.856 200.846 112.246L204.971 130.169C205.549 132.655 203.988 135.141 201.502 135.719C198.726 136.336 196.472 134.466 195.951 132.25L192.174 115.907C191.866 114.539 191.095 113.325 189.996 112.458L175.272 100.817C171.746 98.0229 171.167 93.8216 171.167 92.3377V72.6224C171.167 66.6673 176.005 61.83 181.96 61.83H185.564C189.919 61.83 193.851 64.451 195.527 68.4789L201.714 83.4147H211.562L208.363 71.5431C208.151 70.7144 208.632 69.8665 209.461 69.6545L215.416 68.0549C216.245 67.8429 217.093 68.3247 217.305 69.1534L228.617 111.359C232.029 111.899 234.996 113.807 236.866 116.563L278.314 102.623C279.123 102.391 279.971 102.892 280.183 103.702ZM229.754 123.501C229.754 121.805 228.367 120.417 226.671 120.417C224.975 120.417 223.587 121.805 223.587 123.501C223.587 125.196 224.975 126.584 226.671 126.584C228.367 126.584 229.754 125.196 229.754 123.501Z" fill="#FFB4A2"/>
<path d="M240.147 65.2072C239.229 62.3813 242.391 62.1603 241.176 58.4229C242.273 58.0665 244.975 60.1617 245.76 62.5774C246.545 64.9931 245.642 66.6469 244.02 67.174C242.398 67.7011 240.673 66.8252 240.147 65.2072ZM255.718 63.3729C257.34 62.8458 258.243 61.192 257.458 58.7764C256.673 56.3607 253.972 54.2655 252.875 54.6218C254.089 58.3593 250.928 58.5803 251.846 61.4061C252.372 63.0242 254.096 63.9 255.718 63.3729ZM269.705 76.5658L276.813 98.4435L235.869 111.747L228.76 89.8695C227.976 87.4538 229.304 84.8555 231.726 84.0685L233.919 83.3558L230.602 73.1462L234.989 71.7208L238.306 81.9304L245.618 79.5548L242.3 69.3452L246.687 67.9198L250.004 78.1294L257.316 75.7537L253.999 65.5441L258.386 64.1187L261.703 74.3283L263.896 73.6156C266.318 72.8287 268.92 74.1501 269.705 76.5658ZM233.325 88.991L235.008 94.1716C235.979 94.5617 236.794 94.9186 237.843 94.5777C240.163 93.8241 239.649 90.7659 243.727 89.4409C247.746 88.135 249.222 90.8804 251.484 90.1456C253.822 89.3857 253.283 86.3359 257.368 85.0088C261.432 83.6881 262.824 86.461 265.147 85.7061C266.176 85.3718 266.621 84.6042 267.178 83.7171L265.496 78.5389C265.449 78.3938 265.346 78.2735 265.21 78.2043C265.074 78.1351 264.915 78.1228 264.77 78.1701L233.696 88.2659C233.55 88.3132 233.429 88.4161 233.36 88.5521C233.29 88.6881 233.278 88.846 233.325 88.991ZM271.005 95.4934L268.61 88.1215C268.056 88.595 267.334 89.0269 266.332 89.3524C262.261 90.6751 260.87 87.902 258.552 88.6551C256.254 89.4018 256.728 92.4728 252.668 93.7919C248.649 95.0977 247.173 92.3524 244.912 93.0872C242.573 93.847 243.112 96.8969 239.028 98.224C238.015 98.5531 237.169 98.629 236.438 98.5706L238.834 105.946L271.005 95.4934ZM232.321 70.975C233.944 70.4479 234.846 68.7941 234.061 66.3785C233.276 63.9628 230.575 61.8676 229.478 62.2239C230.692 65.9614 227.531 66.1824 228.449 69.0082C228.975 70.6263 230.699 71.5021 232.321 70.975Z" fill="#FFB4A2"/>
</g>
<path d="M144.414 45.1383L131.74 24.9264C130.607 23.112 128.596 22 126.448 22H47.5523C45.4041 22 43.3927 23.112 42.26 24.9264L29.5859 45.1383C23.8055 54.3468 27.6331 66.7159 37.0068 70.6568V115.022C37.0068 118.806 39.7994 121.889 43.256 121.889H130.744C134.201 121.889 136.993 118.806 136.993 115.022V70.6568C146.367 66.7159 150.195 54.3468 144.414 45.1383ZM127.62 112.524H46.3806V93.7952H127.62V112.524ZM127.581 84.3915H46.3806V71.7689C51.0674 71.1251 55.188 68.8034 58.1563 65.4868C61.6715 69.4082 66.8075 71.9445 72.5684 71.9445C78.3489 71.9445 83.4654 69.4082 86.9806 65.4868C90.4957 69.4082 95.6317 71.9445 101.393 71.9445C107.173 71.9445 112.29 69.4082 115.805 65.4868C118.793 68.8034 122.894 71.1251 127.581 71.7689V84.3915ZM136.935 58.4438C136.31 59.7705 134.806 62.0726 131.662 62.5018C131.193 62.5604 130.725 62.5994 130.256 62.5994C127.385 62.5994 124.749 61.4093 122.816 59.2437L115.844 51.4594L108.872 59.2242C106.939 61.3898 104.283 62.5799 101.432 62.5799C98.5806 62.5799 95.9247 61.3898 93.9913 59.2242L87.0001 51.4594L80.0284 59.2242C78.095 61.3898 75.4391 62.5799 72.588 62.5799C69.7173 62.5799 67.0809 61.3898 65.1476 59.2242L58.1563 51.4594L51.1846 59.2242C49.2513 61.3898 46.5954 62.5799 43.7442 62.5799C43.256 62.5799 42.7873 62.5409 42.3381 62.4823C39.2135 62.0531 37.6903 59.7705 37.0654 58.4243C36.089 56.3173 35.6789 53.0397 37.5146 50.1133L49.2708 31.3646H124.71L136.466 50.1133C138.321 53.0592 137.931 56.3368 136.935 58.4438Z" fill="#FFB4A2"/>
</g>
<defs>
<clipPath id="clip0_120_418">
<rect width="463" height="156" fill="white"/>
</clipPath>
<clipPath id="clip1_120_418">
<rect width="142.519" height="139" fill="white" transform="translate(151 17)"/>
</clipPath>
</defs>
</svg>
