<svg width="30" height="30" viewBox="0 0 30 30" fill="none" xmlns="http://www.w3.org/2000/svg">
<g clip-path="url(#clip0_6_427)">
<path d="M28.9 12.3875L24.0625 7.5C23.9463 7.38284 23.808 7.28984 23.6557 7.22638C23.5034 7.16292 23.34 7.13025 23.175 7.13025C23.01 7.13025 22.8466 7.16292 22.6943 7.22638C22.542 7.28984 22.4037 7.38284 22.2875 7.5V7.5C22.0547 7.7342 21.924 8.05101 21.924 8.38125C21.924 8.71148 22.0547 9.02829 22.2875 9.2625L26.7375 13.75H1.25C0.918479 13.75 0.600537 13.8817 0.366117 14.1161C0.131696 14.3505 0 14.6685 0 15H0C0 15.3315 0.131696 15.6495 0.366117 15.8839C0.600537 16.1183 0.918479 16.25 1.25 16.25H26.8125L22.2875 20.7625C22.1703 20.8787 22.0773 21.017 22.0139 21.1693C21.9504 21.3216 21.9178 21.485 21.9178 21.65C21.9178 21.815 21.9504 21.9784 22.0139 22.1307C22.0773 22.283 22.1703 22.4213 22.2875 22.5375C22.4037 22.6547 22.542 22.7477 22.6943 22.8111C22.8466 22.8746 23.01 22.9072 23.175 22.9072C23.34 22.9072 23.5034 22.8746 23.6557 22.8111C23.808 22.7477 23.9463 22.6547 24.0625 22.5375L28.9 17.6875C29.6023 16.9844 29.9967 16.0312 29.9967 15.0375C29.9967 14.0437 29.6023 13.0906 28.9 12.3875V12.3875Z" fill="#6D6875"/>
</g>
<defs>
<clipPath id="clip0_6_427">
<rect width="30" height="30" fill="white"/>
</clipPath>
</defs>
</svg>
