<svg width="30" height="32" viewBox="0 0 30 32" fill="none" xmlns="http://www.w3.org/2000/svg">
<path d="M18.7201 15.0533L11.1734 7.52001C11.0494 7.39504 10.902 7.29584 10.7395 7.22815C10.577 7.16046 10.4027 7.12561 10.2267 7.12561C10.0507 7.12561 9.87643 7.16046 9.71395 7.22815C9.55148 7.29584 9.40401 7.39504 9.28006 7.52001C9.03172 7.76982 8.89233 8.10776 8.89233 8.46001C8.89233 8.81226 9.03172 9.15019 9.28006 9.40001L15.8801 16.0667L9.28006 22.6667C9.03172 22.9165 8.89233 23.2544 8.89233 23.6067C8.89233 23.9589 9.03172 24.2969 9.28006 24.5467C9.40354 24.6727 9.5508 24.7729 9.7133 24.8415C9.8758 24.9102 10.0503 24.9459 10.2267 24.9467C10.4031 24.9459 10.5776 24.9102 10.7401 24.8415C10.9026 24.7729 11.0499 24.6727 11.1734 24.5467L18.7201 17.0133C18.8554 16.8885 18.9634 16.7369 19.0373 16.5683C19.1112 16.3996 19.1493 16.2175 19.1493 16.0333C19.1493 15.8492 19.1112 15.6671 19.0373 15.4984C18.9634 15.3297 18.8554 15.1782 18.7201 15.0533V15.0533Z" fill="white"/>
</svg>
