<svg width="56" height="25" viewBox="0 0 56 25" fill="none" xmlns="http://www.w3.org/2000/svg">
<path fill-rule="evenodd" clip-rule="evenodd" d="M10.2323 3.5942C9.57601 4.40486 8.52589 5.04425 7.47577 4.95291C7.34451 3.85681 7.85863 2.6922 8.46026 1.97289C9.11659 1.13939 10.2652 0.545671 11.1949 0.5C11.3043 1.64177 10.8777 2.76071 10.2323 3.5942ZM11.1839 5.16979C10.2588 5.11421 9.41462 5.46019 8.73278 5.73965C8.294 5.91949 7.92244 6.07178 7.63976 6.07178C7.32253 6.07178 6.93562 5.91135 6.50121 5.73122C5.932 5.49519 5.28123 5.22534 4.59879 5.23829C3.03455 5.26113 1.5797 6.18596 0.781173 7.65884C-0.859637 10.6046 0.354562 14.9662 1.94068 17.3639C2.71733 18.5513 3.64712 19.853 4.87226 19.8073C5.41124 19.7861 5.79896 19.6143 6.20021 19.4366C6.66216 19.232 7.14204 19.0195 7.89135 19.0195C8.61468 19.0195 9.07357 19.2265 9.51409 19.4252C9.93295 19.6141 10.3352 19.7956 10.9323 19.7845C12.2012 19.7616 12.9997 18.597 13.7764 17.4096C14.6145 16.1351 14.9828 14.8913 15.0387 14.7026L15.0453 14.6807C15.0439 14.6793 15.0336 14.6744 15.0153 14.6657L15.0153 14.6657L15.0153 14.6657C14.7351 14.5318 12.5937 13.5085 12.5731 10.7645C12.5525 8.46125 14.2717 7.2943 14.5423 7.11061L14.5423 7.1106L14.5424 7.11055C14.5588 7.0994 14.5699 7.09188 14.5749 7.08796C13.481 5.39814 11.7746 5.21546 11.1839 5.16979ZM19.9678 19.6589V1.85867H26.367C29.6705 1.85867 31.9785 4.23355 31.9785 7.70453C31.9785 11.1755 29.6267 13.5732 26.2794 13.5732H22.615V19.6589H19.9678ZM22.6147 4.188H25.6666C27.9638 4.188 29.2764 5.46678 29.2764 7.71607C29.2764 9.96536 27.9638 11.2556 25.6557 11.2556H22.6147V4.188ZM40.7187 17.5237C40.0186 18.9167 38.4763 19.7958 36.8136 19.7958C34.3524 19.7958 32.635 18.2659 32.635 15.9595C32.635 13.676 34.2977 12.3629 37.3714 12.1688L40.6749 11.9633V10.9814C40.6749 9.53132 39.767 8.7435 38.1481 8.7435C36.8136 8.7435 35.84 9.46282 35.6431 10.5589H33.2585C33.335 8.25254 35.4134 6.57414 38.2247 6.57414C41.2547 6.57414 43.2237 8.22971 43.2237 10.7987V19.6588H40.7734V17.5237H40.7187ZM37.5244 17.6837C36.1133 17.6837 35.2164 16.9758 35.2164 15.8911C35.2164 14.7722 36.0805 14.1214 37.7323 14.0186L40.6748 13.8245V14.8293C40.6748 16.4963 39.3184 17.6837 37.5244 17.6837ZM51.351 20.3554C50.29 23.4724 49.0758 24.5 46.4942 24.5C46.2973 24.5 45.641 24.4772 45.4879 24.4315V22.2964C45.652 22.3192 46.0567 22.3421 46.2645 22.3421C47.435 22.3421 48.0913 21.8283 48.496 20.4924L48.7367 19.7046L44.2518 6.74547H47.0193L50.1368 17.2612H50.1915L53.3091 6.74547H56L51.351 20.3554Z" fill="white"/>
</svg>
