<svg width="40" height="31" viewBox="0 0 40 31" fill="none" xmlns="http://www.w3.org/2000/svg">
<path d="M25.408 22.0505H14.5919V2.63916H25.408V22.0505Z" fill="#6C6BBD"/>
<path d="M15.2786 12.3452C15.2786 8.40753 17.1248 4.89995 19.9997 2.63953C17.8973 0.986596 15.244 1.58124e-05 12.3604 1.58124e-05C5.53378 1.58124e-05 0 5.52706 0 12.3452C0 19.1634 5.53378 24.6904 12.3604 24.6904C15.244 24.6904 17.8973 23.7038 19.9997 22.0509C17.1248 19.7905 15.2786 16.2829 15.2786 12.3452" fill="#EB001B"/>
<path d="M40 12.3452C40 19.1634 34.4662 24.6904 27.6396 24.6904C24.756 24.6904 22.1027 23.7038 19.9995 22.0509C22.8753 19.7905 24.7214 16.2829 24.7214 12.3452C24.7214 8.40753 22.8753 4.89995 19.9995 2.63953C22.1027 0.986596 24.756 1.58124e-05 27.6396 1.58124e-05C34.4662 1.58124e-05 40 5.52706 40 12.3452" fill="#0099DF"/>
<path d="M29.0675 27.5355C29.2114 27.5355 29.4181 27.563 29.576 27.625L29.356 28.2968C29.2051 28.2348 29.0542 28.2144 28.9096 28.2144C28.4427 28.2144 28.2093 28.5158 28.2093 29.0573V30.8955H27.4949V27.6179H28.2022V28.0158C28.3877 27.7278 28.6557 27.5355 29.0675 27.5355V27.5355Z" fill="white"/>
<path d="M26.4284 28.2694H25.2613V29.7505C25.2613 30.0794 25.3776 30.2991 25.7352 30.2991C25.9207 30.2991 26.1541 30.2371 26.3663 30.1139L26.5723 30.7237C26.3459 30.8815 25.9891 30.978 25.6802 30.978C24.8353 30.978 24.5406 30.5252 24.5406 29.7638V28.2694H23.8741V27.618H24.5406V26.6236H25.2613V27.618H26.4284V28.2694Z" fill="white"/>
<path fill-rule="evenodd" clip-rule="evenodd" d="M18.1746 27.5356C19.0949 27.5356 19.7268 28.235 19.7339 29.2569C19.7339 29.3518 19.7269 29.4399 19.7199 29.5286L19.7198 29.5308H17.2826C17.3855 30.1202 17.8044 30.3329 18.2642 30.3329C18.5935 30.3329 18.944 30.2097 19.2183 29.9899L19.5689 30.5181C19.1704 30.8541 18.7177 30.9773 18.2233 30.9773C17.2409 30.9773 16.5406 30.2984 16.5406 29.2569C16.5406 28.235 17.2134 27.5356 18.1746 27.5356ZM18.1612 28.1729C17.6527 28.1729 17.3651 28.4955 17.2888 28.9688H18.992C18.9165 28.461 18.621 28.1729 18.1612 28.1729Z" fill="white"/>
<path d="M22.8713 28.4547C22.6724 28.3307 22.2677 28.1729 21.8488 28.1729C21.4574 28.1729 21.2239 28.3173 21.2239 28.5575C21.2239 28.7765 21.4707 28.8385 21.7796 28.8793L22.116 28.9272C22.8304 29.0308 23.2627 29.3322 23.2627 29.9083C23.2627 30.5322 22.7133 30.978 21.7662 30.978C21.2302 30.978 20.7359 30.8407 20.3445 30.5526L20.6809 29.9969C20.9214 30.1822 21.279 30.3399 21.7733 30.3399C22.2606 30.3399 22.5215 30.1963 22.5215 29.942C22.5215 29.7576 22.336 29.654 21.9446 29.5998L21.6083 29.5519C20.8734 29.4483 20.4749 29.1195 20.4749 28.585C20.4749 27.9335 21.011 27.5356 21.8417 27.5356C22.3636 27.5356 22.8375 27.6525 23.1801 27.8786L22.8713 28.4547V28.4547Z" fill="white"/>
<path fill-rule="evenodd" clip-rule="evenodd" d="M32.3849 27.6683C32.168 27.5796 31.9322 27.5356 31.6776 27.5356C31.4229 27.5356 31.1871 27.5796 30.9702 27.6683C30.7533 27.7562 30.567 27.8778 30.4098 28.0325C30.2527 28.1871 30.1293 28.37 30.0397 28.5803C29.9501 28.7914 29.9053 29.0206 29.9053 29.2679C29.9053 29.5151 29.9501 29.7443 30.0397 29.9554C30.1293 30.1657 30.2527 30.3494 30.4098 30.504C30.567 30.6586 30.7533 30.7795 30.9702 30.8682C31.1871 30.9561 31.4229 31.0001 31.6776 31.0001C31.9322 31.0001 32.168 30.9561 32.3849 30.8682C32.6018 30.7795 32.7897 30.6586 32.9476 30.504C33.1064 30.3494 33.2298 30.1657 33.3194 29.9554C33.409 29.7443 33.4538 29.5151 33.4538 29.2679C33.4538 29.0206 33.409 28.7914 33.3194 28.5803C33.2298 28.37 33.1064 28.1871 32.9476 28.0325C32.7897 27.8778 32.6018 27.7562 32.3849 27.6683ZM31.268 28.2899C31.3946 28.2389 31.5305 28.213 31.6775 28.213C31.8245 28.213 31.9612 28.2389 32.087 28.2899C32.2135 28.3417 32.3235 28.4139 32.4155 28.5065C32.509 28.5991 32.5813 28.7106 32.6348 28.8401C32.6874 28.9696 32.7134 29.1124 32.7134 29.2678C32.7134 29.424 32.6874 29.5661 32.6348 29.6956C32.5813 29.8251 32.509 29.9365 32.4155 30.0291C32.3235 30.1218 32.2135 30.194 32.087 30.2458C31.9612 30.2976 31.8245 30.3227 31.6775 30.3227C31.5305 30.3227 31.3946 30.2976 31.268 30.2458C31.1423 30.194 31.033 30.1218 30.9411 30.0291C30.8491 29.9365 30.7768 29.8251 30.7242 29.6956C30.6715 29.5661 30.6456 29.424 30.6456 29.2678C30.6456 29.1124 30.6715 28.9696 30.7242 28.8401C30.7768 28.7106 30.8491 28.5991 30.9411 28.5065C31.033 28.4139 31.1423 28.3417 31.268 28.2899Z" fill="white"/>
<path fill-rule="evenodd" clip-rule="evenodd" d="M15.7742 27.6181V29.2569V30.8957H15.0606V30.4977C14.8335 30.7928 14.4908 30.9781 14.024 30.9781C13.1036 30.9781 12.3829 30.2576 12.3829 29.2569C12.3829 28.2554 13.1036 27.5356 14.024 27.5356C14.4908 27.5356 14.8335 27.7209 15.0606 28.016V27.6181H15.7742ZM14.1127 28.2075C13.495 28.2075 13.117 28.6807 13.117 29.2568C13.117 29.8329 13.495 30.3054 14.1127 30.3054C14.703 30.3054 15.1015 29.8533 15.1015 29.2568C15.1015 28.6603 14.703 28.2075 14.1127 28.2075Z" fill="white"/>
<path d="M11.7512 30.8955V28.8384C11.7512 28.0637 11.2569 27.5425 10.4607 27.5355C10.0418 27.5284 9.60876 27.6587 9.30696 28.1186C9.08061 27.7552 8.72301 27.5355 8.22158 27.5355C7.87184 27.5355 7.52839 27.6383 7.26038 28.0221V27.6179H6.54675V30.8955H7.26746V29.0785C7.26746 28.5095 7.5834 28.2073 8.07068 28.2073C8.5446 28.2073 8.7851 28.5158 8.7851 29.0715V30.8955H9.5058V29.0785C9.5058 28.5095 9.83589 28.2073 10.309 28.2073C10.7971 28.2073 11.0305 28.5158 11.0305 29.0715V30.8955H11.7512V30.8955Z" fill="white"/>
</svg>
