<svg width="68" height="23" viewBox="0 0 68 23" fill="none" xmlns="http://www.w3.org/2000/svg">
<path fill-rule="evenodd" clip-rule="evenodd" d="M17.0007 22.3287H11.1157L6.70273 5.26171C6.49327 4.47663 6.04852 3.78258 5.39432 3.45546C3.76168 2.6334 1.96261 1.97917 0 1.6492V0.992126H9.48023C10.7886 0.992126 11.7699 1.97917 11.9335 3.1255L14.2232 15.4365L20.1053 0.992126H25.8267L17.0007 22.3287ZM29.0978 22.3287H23.5399L28.1165 0.992126H33.6743L29.0978 22.3287ZM40.8648 6.90296C41.0284 5.75378 42.0097 5.0967 43.1546 5.0967C44.9536 4.93172 46.9134 5.26169 48.5489 6.0809L49.5302 1.48704C47.8947 0.829961 46.0956 0.5 44.463 0.5C39.0686 0.5 35.1434 3.45543 35.1434 7.55719C35.1434 10.6776 37.9238 12.316 39.8864 13.3031C42.0097 14.2873 42.8275 14.9443 42.6639 15.9285C42.6639 17.4048 41.0284 18.0619 39.3957 18.0619C37.4331 18.0619 35.4705 17.5698 33.6743 16.7478L32.693 21.3445C34.6556 22.1637 36.7789 22.4936 38.7415 22.4936C44.7901 22.6558 48.5489 19.7032 48.5489 15.2715C48.5489 9.69056 40.8648 9.36345 40.8648 6.90296V6.90296ZM68 22.3287L63.587 0.992126H58.8469C57.8656 0.992126 56.8843 1.6492 56.5572 2.6334L48.3853 22.3287H54.1068L55.2487 19.2111H62.2786L62.9328 22.3287H68ZM59.6646 6.73806L61.2973 14.7795H56.7207L59.6646 6.73806Z" fill="white"/>
</svg>
