<svg width="24" height="25" viewBox="0 0 24 25" fill="none" xmlns="http://www.w3.org/2000/svg">
<g clip-path="url(#clip0_1561_72)">
<path d="M19 2.06006H18V1.06006C18 0.794842 17.8946 0.540488 17.7071 0.352952C17.5196 0.165415 17.2652 0.0600586 17 0.0600586C16.7348 0.0600586 16.4804 0.165415 16.2929 0.352952C16.1054 0.540488 16 0.794842 16 1.06006V2.06006H8V1.06006C8 0.794842 7.89464 0.540488 7.70711 0.352952C7.51957 0.165415 7.26522 0.0600586 7 0.0600586C6.73478 0.0600586 6.48043 0.165415 6.29289 0.352952C6.10536 0.540488 6 0.794842 6 1.06006V2.06006H5C3.6744 2.06165 2.40356 2.58894 1.46622 3.52628C0.528882 4.46362 0.00158786 5.73446 0 7.06006L0 19.0601C0.00158786 20.3857 0.528882 21.6565 1.46622 22.5938C2.40356 23.5312 3.6744 24.0585 5 24.0601H19C20.3256 24.0585 21.5964 23.5312 22.5338 22.5938C23.4711 21.6565 23.9984 20.3857 24 19.0601V7.06006C23.9984 5.73446 23.4711 4.46362 22.5338 3.52628C21.5964 2.58894 20.3256 2.06165 19 2.06006V2.06006ZM2 7.06006C2 6.26441 2.31607 5.50135 2.87868 4.93874C3.44129 4.37613 4.20435 4.06006 5 4.06006H19C19.7956 4.06006 20.5587 4.37613 21.1213 4.93874C21.6839 5.50135 22 6.26441 22 7.06006V8.06006H2V7.06006ZM19 22.0601H5C4.20435 22.0601 3.44129 21.744 2.87868 21.1814C2.31607 20.6188 2 19.8557 2 19.0601V10.0601H22V19.0601C22 19.8557 21.6839 20.6188 21.1213 21.1814C20.5587 21.744 19.7956 22.0601 19 22.0601Z" fill="white"/>
<path d="M12 16.5601C12.8284 16.5601 13.5 15.8885 13.5 15.0601C13.5 14.2316 12.8284 13.5601 12 13.5601C11.1716 13.5601 10.5 14.2316 10.5 15.0601C10.5 15.8885 11.1716 16.5601 12 16.5601Z" fill="white"/>
<path d="M6.99984 16.5601C7.82827 16.5601 8.49984 15.8885 8.49984 15.0601C8.49984 14.2316 7.82827 13.5601 6.99984 13.5601C6.17141 13.5601 5.49984 14.2316 5.49984 15.0601C5.49984 15.8885 6.17141 16.5601 6.99984 16.5601Z" fill="white"/>
<path d="M17.0001 16.5601C17.8286 16.5601 18.5001 15.8885 18.5001 15.0601C18.5001 14.2316 17.8286 13.5601 17.0001 13.5601C16.1717 13.5601 15.5001 14.2316 15.5001 15.0601C15.5001 15.8885 16.1717 16.5601 17.0001 16.5601Z" fill="white"/>
</g>
<defs>
<clipPath id="clip0_1561_72">
<rect width="24" height="24" fill="white" transform="translate(0 0.0600586)"/>
</clipPath>
</defs>
</svg>
