<svg width="24" height="25" viewBox="0 0 24 25" fill="none" xmlns="http://www.w3.org/2000/svg">
<g clip-path="url(#clip0_1561_79)">
<path d="M12 0.0600586C9.62663 0.0600586 7.30655 0.763846 5.33316 2.08242C3.35977 3.401 1.8217 5.27514 0.913451 7.46786C0.00519943 9.66057 -0.232441 12.0734 0.230582 14.4011C0.693605 16.7289 1.83649 18.8671 3.51472 20.5453C5.19295 22.2236 7.33115 23.3665 9.65892 23.8295C11.9867 24.2925 14.3995 24.0549 16.5922 23.1466C18.7849 22.2384 20.6591 20.7003 21.9776 18.7269C23.2962 16.7535 24 14.4334 24 12.0601C23.9966 8.87852 22.7312 5.82827 20.4815 3.57858C18.2318 1.32889 15.1815 0.0634997 12 0.0600586V0.0600586ZM12 22.0601C10.0222 22.0601 8.08879 21.4736 6.4443 20.3748C4.79981 19.2759 3.51809 17.7142 2.76121 15.8869C2.00433 14.0596 1.8063 12.049 2.19215 10.1092C2.578 8.16935 3.53041 6.38752 4.92894 4.98899C6.32746 3.59047 8.10929 2.63806 10.0491 2.25221C11.9889 1.86635 13.9996 2.06439 15.8268 2.82126C17.6541 3.57814 19.2159 4.85987 20.3147 6.50436C21.4135 8.14885 22 10.0822 22 12.0601C21.9971 14.7113 20.9426 17.2532 19.0679 19.1279C17.1931 21.0026 14.6513 22.0571 12 22.0601Z" fill="white"/>
<path d="M11.9998 6.06006C11.7346 6.06006 11.4803 6.16542 11.2927 6.35295C11.1052 6.54049 10.9998 6.79484 10.9998 7.06006V11.3851L7.62882 13.497C7.40339 13.6379 7.24313 13.8625 7.18331 14.1215C7.12349 14.3805 7.16899 14.6526 7.30982 14.878C7.45065 15.1035 7.67527 15.2637 7.93426 15.3236C8.19324 15.3834 8.46539 15.3379 8.69082 15.197L12.5308 12.797C12.6759 12.7061 12.7952 12.5795 12.8773 12.4293C12.9595 12.2791 13.0016 12.1103 12.9998 11.939V7.06006C12.9998 6.79484 12.8945 6.54049 12.7069 6.35295C12.5194 6.16542 12.265 6.06006 11.9998 6.06006Z" fill="white"/>
</g>
<defs>
<clipPath id="clip0_1561_79">
<rect width="24" height="24" fill="white" transform="translate(0 0.0600586)"/>
</clipPath>
</defs>
</svg>
