<svg width="20" height="24" viewBox="0 0 20 24" fill="none" xmlns="http://www.w3.org/2000/svg">
<path d="M3.68372 19C3.5485 19 3.41631 18.9599 3.30387 18.8848C3.19143 18.8097 3.10379 18.703 3.05204 18.578C3.00029 18.4531 2.98676 18.3156 3.01314 18.183C3.03953 18.0504 3.10466 17.9286 3.20028 17.833L15.833 5.20025C15.9612 5.07203 16.1351 5 16.3164 5C16.4978 5 16.6717 5.07203 16.7999 5.20025C16.9281 5.32846 17.0001 5.50236 17.0001 5.68368C17.0001 5.865 16.9281 6.0389 16.7999 6.16711L4.16715 18.7998C4.10372 18.8634 4.02837 18.9138 3.9454 18.9482C3.86244 18.9825 3.77351 19.0001 3.68372 19Z" fill="black"/>
<path d="M16.3165 19C16.2267 19.0001 16.1378 18.9825 16.0548 18.9482C15.9719 18.9138 15.8965 18.8634 15.8331 18.7998L3.20037 6.16711C3.07215 6.0389 3.00012 5.865 3.00012 5.68368C3.00012 5.50236 3.07215 5.32846 3.20037 5.20025C3.32858 5.07203 3.50248 5 3.6838 5C3.86512 5 4.03902 5.07203 4.16724 5.20025L16.8 17.833C16.8956 17.9286 16.9607 18.0504 16.9871 18.183C17.0135 18.3156 17 18.4531 16.9482 18.578C16.8965 18.703 16.8088 18.8097 16.6964 18.8848C16.5839 18.9599 16.4518 19 16.3165 19V19Z" fill="black"/>
</svg>
