<?xml version="1.0" standalone="no"?>
<!DOCTYPE svg PUBLIC "-//W3C//DTD SVG 1.1//EN" "http://www.w3.org/Graphics/SVG/1.1/DTD/svg11.dtd" >
<svg xmlns="http://www.w3.org/2000/svg" xmlns:xlink="http://www.w3.org/1999/xlink" version="1.1">
<metadata></metadata>
<defs>
<font id="seoulhangang_cblregular" horiz-adv-x="614" >
<font-face units-per-em="2048" ascent="1758" descent="-290" />
<missing-glyph horiz-adv-x="500" />
<glyph horiz-adv-x="0" />
<glyph unicode="&#xd;" />
<glyph />
<glyph />
<glyph />
<glyph />
<glyph />
<glyph />
<glyph />
<glyph />
<glyph />
<glyph />
<glyph unicode="&#x9;" />
<glyph unicode="&#xa;" />
<glyph />
<glyph />
<glyph />
<glyph />
<glyph />
<glyph />
<glyph />
<glyph />
<glyph />
<glyph />
<glyph />
<glyph />
<glyph />
<glyph />
<glyph />
<glyph />
<glyph />
<glyph />
<glyph />
<glyph />
<glyph unicode=" " />
<glyph unicode="!" horiz-adv-x="598" d="M460 122q0 -66 -47 -113t-113 -47q-68 0 -115 47t-47 113t47 113t115 47q66 0 113 -47t47 -113zM154 1620h290l-54 -1154q-2 -34 -24 -54t-66 -20q-40 0 -65 18t-25 56z" />
<glyph unicode="&#x22;" horiz-adv-x="758" d="M98 1662h254l-28 -484q-2 -38 -28 -60t-66 -22q-48 -2 -72 22t-24 62zM406 1662h254l-36 -482q0 -38 -25 -61t-71 -23q-44 0 -68 23t-24 61z" />
<glyph unicode="#" horiz-adv-x="1148" d="M1006 1470l-90 -394h218l-38 -152h-216l-54 -248h228l-44 -150h-220l-102 -452h-202l102 452h-144l-102 -452h-204l102 452h-216l44 150h204l58 248h-222l46 152h210l88 394h206l-88 -394h142l88 394h206zM620 676l58 248h-144l-56 -248h142z" />
<glyph unicode="$" horiz-adv-x="994" d="M394 46q-138 14 -222 74q-110 78 -124 234h246q0 -88 54 -130q20 -18 46 -28v548q-158 62 -234 140q-92 94 -92 248t110 260q84 78 216 96v150h170v-148q120 -14 200 -68q102 -74 136 -232h-250q-4 90 -50 134q-16 14 -36 22v-500q186 -72 268 -156q96 -100 96 -246 q0 -190 -128 -296q-98 -82 -236 -100v-160h-170v158zM564 198q40 18 70 54q60 72 60 176q0 112 -58 184q-28 36 -72 62v-476zM394 1342q-26 -14 -44 -38q-54 -62 -54 -184q0 -110 54 -166q18 -22 44 -38v426z" />
<glyph unicode="%" horiz-adv-x="1568" d="M970 1486h198l-570 -1442h-198zM22 1020q0 186 90 300t242 114q150 0 241 -114t91 -300q0 -184 -91 -298t-241 -114q-152 0 -242 114t-90 298zM468 1020q0 124 -32 200t-80 76q-46 0 -79 -76t-33 -200q0 -122 33 -198t79 -76q48 0 80 76t32 198zM882 502q0 184 90 299 t242 115q150 0 241 -115t91 -299t-91 -299t-241 -115q-152 0 -242 115t-90 299zM1330 502q0 124 -33 200t-81 76q-46 0 -79 -76t-33 -200q0 -122 33 -198t79 -76q48 0 81 76t33 198z" />
<glyph unicode="&#x26;" horiz-adv-x="1524" d="M620 534q-44 70 -120 208q-66 -48 -104 -102q-70 -98 -62 -212q8 -120 68 -180t132 -64q64 -6 144 32q52 22 112 80q-102 128 -170 238zM414 904q-82 174 -84 298q-2 144 93 240t269 90q140 -4 225 -88t85 -212q0 -134 -88 -224q-74 -76 -230 -160q72 -130 112 -196 q54 -88 128 -192q18 32 34 70q46 98 46 152q0 40 -12 57t-74 17q-38 0 -38 62t36 62h416q46 0 46 -62t-50 -62q-64 0 -80 -9t-30 -77q-54 -204 -178 -372q84 -94 160 -106q20 -4 50 3t64 21q90 52 132 -5t-12 -99q-34 -24 -98 -51t-156 -27q-144 0 -268 116 q-164 -150 -378 -150q-200 0 -316 123t-116 295q0 178 108 312q78 96 204 174zM604 1004q100 58 142 102q54 62 54 116q0 64 -34 103t-86 39q-54 0 -91 -39t-37 -125q0 -78 52 -196z" />
<glyph unicode="'" horiz-adv-x="596" d="M166 1662h264l-28 -484q-2 -38 -30 -60t-70 -22q-46 -2 -75 21t-31 63z" />
<glyph unicode="(" horiz-adv-x="696" d="M142 702q0 348 117 591t277 343q82 50 117 -3t-5 -93q-138 -130 -204 -340t-64 -498q-2 -290 64 -500t204 -340q40 -40 5 -93t-117 -1q-160 96 -277 341t-117 593z" />
<glyph unicode=")" horiz-adv-x="696" d="M556 702q0 -348 -118 -593t-280 -341q-82 -52 -117 1t5 91q138 132 205 342t65 500q2 288 -65 498t-205 340q-40 40 -5 93t117 3q162 -100 280 -343t118 -591z" />
<glyph unicode="*" horiz-adv-x="696" d="M348 1094q-2 -12 -10 -58q-12 -68 -38 -108q-24 -38 -56 -53t-74 11q-34 22 -39 59t19 73q18 38 72 82q44 40 50 46q-8 -4 -62 -22q-66 -26 -116 -26q-40 0 -68 22t-28 68q0 42 28 66t68 24q50 0 114 -22q54 -18 62 -22q-8 6 -48 42q-52 46 -72 76q-24 44 -19 81t41 57 t70 8t58 -54q26 -34 38 -102q8 -46 10 -60l10 62q12 66 38 98q20 44 54 56t68 -8q40 -20 46 -57t-20 -81q-18 -30 -68 -76q-44 -36 -50 -42q6 4 60 22q64 22 110 22q48 0 76 -24t28 -66q0 -46 -28 -68t-76 -22q-46 0 -110 26q-50 16 -60 20q8 -6 50 -44q50 -44 68 -82 q26 -38 20 -74t-42 -58q-38 -26 -72 -11t-54 53q-26 40 -38 108q-8 46 -10 58z" />
<glyph unicode="+" horiz-adv-x="1056" d="M426 720h-364v166h364v414h198v-414h368v-166h-368v-448h-198v448z" />
<glyph unicode="," horiz-adv-x="562" d="M118 122q0 66 47 113t115 47q66 0 114 -47t56 -105q14 -108 -40 -215t-156 -161q-58 -32 -93 1t21 75q28 24 49 57t27 71q2 16 -14 16q-42 2 -84 44t-42 104z" />
<glyph unicode="-" horiz-adv-x="758" d="M64 898h630v-190h-630v190z" />
<glyph unicode="." horiz-adv-x="562" d="M442 122q0 -66 -47 -113t-115 -47t-115 47t-47 113t47 113t115 47t115 -47t47 -113z" />
<glyph unicode="/" horiz-adv-x="750" d="M540 1656h212l-544 -1914h-210z" />
<glyph unicode="0" horiz-adv-x="922" d="M8 764q0 348 113 554t337 206q226 0 341 -206t115 -554q0 -346 -115 -550t-341 -204q-224 0 -337 204t-113 550zM268 764q0 -312 62 -447t128 -135q70 0 133 135t63 447q0 316 -63 452t-133 136q-66 0 -128 -136t-62 -452z" />
<glyph unicode="1" horiz-adv-x="922" d="M328 1234l-38 -14q-96 -48 -126 16t18 92l302 190h144v-1494h-250v1132q0 70 -14 77t-36 1z" />
<glyph unicode="2" horiz-adv-x="922" d="M36 158q34 38 70 84q122 130 305 407t183 453q0 126 -51 188t-133 62q-60 0 -107 -46t-61 -168h-224q16 198 128 294t266 96q216 0 328 -119t112 -315q0 -170 -153 -418t-349 -464h210q62 0 102 15t60 105q14 64 88 53t74 -63l-20 -286h-828v122z" />
<glyph unicode="3" horiz-adv-x="922" d="M688 800q76 -30 135 -135t53 -233q-6 -170 -132 -296t-380 -126q-84 0 -177 27t-165 85v208q126 -102 205 -120t129 -18q106 0 185 67t79 207q0 88 -31 139t-65 71q-30 22 -71 31t-95 9q-72 0 -71 85t93 85h51t35 4q52 14 96 72t48 162q6 112 -53 169t-141 57 q-58 0 -106 -37t-68 -135h-214q24 170 129 258t267 88q204 0 319 -111t115 -283q0 -132 -59 -222t-111 -108z" />
<glyph unicode="4" horiz-adv-x="922" d="M526 430h-536v148l522 946h248v-920h174v-174h-174v-396h-234v396zM230 604h296v524z" />
<glyph unicode="5" horiz-adv-x="922" d="M312 908q52 26 102 37t112 5q156 -12 265 -126t109 -308q0 -214 -134 -352t-366 -148q-100 -4 -199 26t-167 82v182q142 -96 239 -109t141 -3q102 22 170 107t68 227q0 122 -56 183t-132 69q-54 2 -101 -21t-81 -85h-216l32 828h716v-176h-484z" />
<glyph unicode="6" horiz-adv-x="922" d="M282 856q80 84 228 88q200 0 307 -135t107 -331q0 -206 -119 -336t-349 -136q-212 -2 -324 155t-112 511q0 290 52 460t148 262q112 120 299 129t325 -99v-178q-110 80 -181 93t-105 13q-110 -6 -196 -144q-62 -106 -80 -352zM276 598q8 -242 64 -326q62 -100 128 -100 q76 0 138 75t62 223q0 164 -53 233t-117 69q-88 0 -172 -94q-26 -30 -50 -80z" />
<glyph unicode="7" horiz-adv-x="922" d="M620 1322h-324q-36 0 -66 -23t-44 -103q-12 -66 -86 -64t-74 74l2 286h874v-114l-454 -1356h-252z" />
<glyph unicode="8" horiz-adv-x="922" d="M44 1128q0 182 109 289t305 107q200 0 310 -111t110 -293q0 -168 -110 -272q-22 -22 -50 -38q40 -26 72 -60q120 -126 120 -306q0 -206 -121 -322t-331 -116q-206 0 -326 116t-120 322q0 180 120 306q32 36 72 60q-28 18 -50 42q-110 108 -110 276zM266 444 q0 -136 61 -202t131 -66q72 0 135 66t63 202t-63 207t-135 71q-70 0 -131 -71t-61 -207zM294 1128q0 -118 53 -177t111 -59q62 0 115 55t53 173t-54 176t-114 58q-58 0 -111 -54t-53 -172z" />
<glyph unicode="9" horiz-adv-x="922" d="M644 674q-8 -4 -12 -8q-82 -74 -212 -74q-198 0 -304 133t-106 331q0 204 112 336t332 134q206 4 321 -175t115 -559q0 -230 -57 -407t-157 -263q-114 -98 -291 -109t-313 101v176q100 -72 171 -84t111 -12q120 0 206 128q68 104 84 352zM644 906q-12 232 -62 330 q-64 120 -142 124q-70 2 -122 -81t-52 -217q0 -164 57 -231t113 -67q86 0 170 88q20 22 38 54z" />
<glyph unicode=":" horiz-adv-x="596" d="M458 1072q0 -66 -46 -112t-112 -46q-68 0 -114 46t-46 112t46 112t114 46q66 0 112 -46t46 -112zM458 326q0 -66 -46 -112t-112 -46q-68 0 -114 46t-46 112t46 112t114 46q66 0 112 -46t46 -112z" />
<glyph unicode=";" horiz-adv-x="596" d="M458 1072q0 -66 -46 -112t-112 -46q-68 0 -114 46t-46 112t46 112t114 46q66 0 112 -46t46 -112zM138 322q0 66 47 113t115 47q64 0 112 -47t56 -105q16 -108 -39 -214t-157 -162q-56 -32 -91 1t19 77q30 22 50 56t26 70q2 16 -14 16q-40 2 -82 44t-42 104z" />
<glyph unicode="&#x3c;" horiz-adv-x="1056" d="M160 678v156l842 758v-240l-656 -596l656 -596v-240z" />
<glyph unicode="=" horiz-adv-x="1056" d="M62 690h934v-178h-934v178zM62 1092h934v-178h-934v178z" />
<glyph unicode="&#x3e;" horiz-adv-x="1056" d="M898 678l-842 -758v240l650 596l-650 596v240l842 -758v-156z" />
<glyph unicode="?" horiz-adv-x="930" d="M566 122q0 -66 -47 -113t-115 -47t-115 47t-47 113t47 113t115 47t115 -47t47 -113zM300 608q0 96 33 165t95 141l110 130q42 52 69 95t27 131q0 106 -52 155t-126 49q-54 0 -101 -48t-47 -156h-250q0 154 106 255t288 101q202 0 311 -102t109 -264q0 -98 -30 -169 t-114 -165q-142 -146 -171 -181t-43 -63q-10 -24 -15 -47t-5 -83v-118q0 -28 -29 -50t-71 -22q-44 0 -69 22t-25 50v174z" />
<glyph unicode="@" horiz-adv-x="1822" d="M1548 -34q-102 -114 -261 -185t-363 -71q-426 0 -627 252t-185 582q24 412 264 702t604 290q346 0 544 -214t184 -590q-6 -232 -127 -425t-297 -267q-114 -48 -204 -15t-106 87q-22 -20 -80 -45t-128 -25q-152 0 -229 99t-73 247q12 236 161 469t375 237q82 0 141 -32 t71 -48l12 38h134q94 0 68 -94l-222 -654q-28 -90 0 -95t80 23q88 54 152 194t72 298q18 324 -138 482t-364 158q-234 2 -427 -198t-237 -526q-48 -362 124 -565t460 -203q142 0 268 49t222 139q66 68 124 18t8 -112zM684 402q-10 -114 25 -150t77 -36q60 0 121 61t111 191 q46 118 71 212t25 134q0 58 -36 84t-80 24q-84 -6 -190 -172t-124 -348z" />
<glyph unicode="A" horiz-adv-x="1092" d="M876 36l-146 460h-390l-144 -460h-242l388 1206q32 100 25 113t-27 17q-44 12 -64 27t-20 51q0 60 80 60h318l488 -1474h-266zM674 668l-142 446l-138 -446h280z" />
<glyph unicode="B" horiz-adv-x="1124" d="M382 1276v-376h176q102 0 163 51t61 173q0 108 -69 164t-169 56h-90q-72 0 -72 -68zM382 272q0 -70 74 -70h94q126 0 211 62t85 186q0 148 -81 213t-203 65h-180v-456zM584 36h-450v1228q0 62 -11 82t-29 26q-38 12 -57 28t-19 48q0 62 68 62h480q224 0 349 -97t125 -271 q0 -124 -63 -211t-119 -103q86 -20 166 -119t80 -259q0 -184 -128 -299t-392 -115z" />
<glyph unicode="C" horiz-adv-x="1164" d="M1120 130q-48 -38 -145 -69t-203 -39q-348 -22 -551 203t-203 575q0 322 161 529t481 207q206 0 345 -110t139 -260h-270q-4 94 -66 143t-158 49q-142 0 -255 -143t-113 -381q0 -358 165 -501t345 -129q64 6 113 22t89 34q52 34 98 24t62 -46q12 -28 1 -59t-35 -49z" />
<glyph unicode="D" horiz-adv-x="1192" d="M134 1264q0 64 -13 85t-27 27q-36 8 -54 23t-18 49q0 62 74 62h268q84 0 186 -6t170 -18q206 -40 330 -212t124 -510q0 -232 -61 -370t-163 -220q-96 -74 -220 -106t-304 -32h-292v1228zM512 202q168 0 286 134t118 428q0 288 -99 434t-279 146h-80q-72 0 -72 -72v-1000 q0 -70 72 -70h54z" />
<glyph unicode="E" horiz-adv-x="1064" d="M386 882h196q94 0 130 24t36 90q0 38 80 38t80 -38v-400q0 -34 -80 -34t-80 34q0 68 -38 96t-130 28h-194v-448q0 -70 76 -70h242q78 0 103 37t35 83q12 66 94 57t82 -65l-14 -278h-870v1228q0 64 -10 83t-28 25q-34 12 -54 27t-20 49q0 62 70 62h880l12 -262 q0 -64 -84 -66t-88 64q-6 32 -31 65t-109 33h-214q-72 0 -72 -72v-390z" />
<glyph unicode="F" horiz-adv-x="994" d="M386 890h194q96 0 132 24t36 90q0 38 80 38t80 -38v-400q0 -34 -80 -34t-80 34q0 68 -38 96t-132 28h-192v-692h-252v1228q0 64 -13 85t-27 27q-30 8 -51 23t-21 49q0 62 70 62h880l12 -262q0 -64 -79 -66t-93 60q-16 56 -38 80t-102 24h-214q-72 0 -72 -78v-378z" />
<glyph unicode="G" horiz-adv-x="1200" d="M1140 752v-606q-154 -106 -391 -120t-397 82q-148 90 -241 258t-95 420q0 334 162 542t482 208q206 0 345 -110t139 -260h-266q-4 92 -71 142t-157 50q-138 0 -255 -135t-117 -405q0 -294 124 -449t304 -163q38 0 89 4t93 18v296q0 106 -37 131t-139 27q-60 0 -60 71 t46 71h366q76 0 76 -72z" />
<glyph unicode="H" horiz-adv-x="1216" d="M386 36h-252v1226q0 62 -10 82t-26 26q-34 14 -62 23t-28 47q0 68 84 68h212q82 0 82 -66v-542h476v610h252v-1474h-252v692h-476v-692z" />
<glyph unicode="I" horiz-adv-x="492" d="M388 36h-252v1228q0 64 -9 82t-31 26q-32 12 -59 25t-27 45q0 68 84 68h212q82 0 82 -66v-1408z" />
<glyph unicode="J" horiz-adv-x="818" d="M464 442v826q0 60 -8 79t-30 23q-26 10 -56 23t-30 53q0 64 84 64h210q82 0 82 -66v-1010q0 -212 -104 -311t-286 -99q-194 0 -288 82t-94 242h254q2 -102 37 -128t87 -26q56 0 99 52t43 196z" />
<glyph unicode="K" horiz-adv-x="1028" d="M390 36h-252v1226q0 64 -10 84t-24 24q-32 12 -62 24t-30 46q0 68 84 68h212q82 0 82 -66v-474l406 540h158q44 0 56 -35t-10 -61l-466 -576l600 -800h-286l-458 644v-644z" />
<glyph unicode="L" horiz-adv-x="956" d="M388 294q0 -78 74 -78h228q70 0 96 26t40 112q10 64 93 57t83 -65l-14 -310h-852v1226q0 64 -9 83t-23 23q-38 10 -66 24t-28 52q0 64 84 64h212q82 0 82 -64v-1150z" />
<glyph unicode="M" horiz-adv-x="1516" d="M456 1510l304 -1092l322 1090l338 2v-1474h-236v1016l-290 -922q-16 -50 -46 -72t-78 -22h-136l-282 1048v-1048h-222v1230q0 62 -8 81t-26 25q-34 14 -52 28t-18 42q0 68 86 68h344z" />
<glyph unicode="N" horiz-adv-x="1216" d="M412 1510l466 -1002v1002h236v-1380q0 -94 -126 -94h-142l-488 1054v-1054h-224v1230q0 62 -7 81t-23 25q-36 12 -60 24t-24 46q0 68 84 68h308z" />
<glyph unicode="O" horiz-adv-x="1306" d="M18 780q0 330 165 543t469 213t470 -213t166 -543t-166 -543t-470 -213t-469 213t-165 543zM278 780q0 -280 110 -429t264 -149t265 149t111 429t-111 430t-265 150t-264 -150t-110 -430z" />
<glyph unicode="P" horiz-adv-x="1050" d="M98 1372q-44 12 -63 28t-19 48q0 62 60 62h482q238 0 370 -116t132 -302q0 -212 -143 -324t-405 -112h-70q-50 0 -50 84t44 84h52q150 0 232 66t82 204q2 118 -76 185t-174 67h-96q-82 0 -82 -78v-1232h-240v1228q0 64 -12 84t-24 24z" />
<glyph unicode="Q" horiz-adv-x="1306" d="M824 44q26 -46 82 -70q82 -38 294 -2v-140q-82 -22 -128 -26t-104 -4q-188 0 -306 68q-96 52 -154 168q-200 38 -324 198q-166 214 -166 544t165 543t469 213t470 -213t166 -543t-166 -544q-114 -148 -298 -192zM278 780q0 -280 110 -429t264 -149t265 149t111 429 t-111 430t-265 150t-264 -150t-110 -430z" />
<glyph unicode="R" horiz-adv-x="1050" d="M556 1346h-100q-82 0 -82 -78v-1232h-240v1228q0 64 -13 84t-21 22q-46 14 -65 30t-19 48q0 62 60 62h482q238 0 370 -114t132 -300q0 -200 -124 -314t-264 -118l404 -628h-294l-380 648q-30 50 -11 95t65 45h42q140 0 222 68t82 206q2 118 -76 183t-170 65z" />
<glyph unicode="S" horiz-adv-x="922" d="M634 450q-6 84 -70 149t-206 141q-164 80 -250 183t-84 257q4 152 120 254t312 102q106 0 192 -16t170 -46v-210q-114 60 -202 80t-152 20t-122 -49t-58 -143q0 -84 71 -149t227 -149q158 -84 237 -187t79 -241q0 -170 -121 -292t-357 -134q-88 -4 -186 17t-160 61 q-40 24 -52 58t0 74q18 40 66 53t110 -25q42 -20 106 -37t110 -15q112 10 172 76t48 168z" />
<glyph unicode="T" horiz-adv-x="1040" d="M282 1344q-88 0 -115 -52t-29 -108q-2 -52 -87 -50t-85 64l10 312h1088l12 -312q0 -62 -86 -64t-90 62q-2 46 -30 97t-120 51h-104v-1308h-252v1308h-112z" />
<glyph unicode="U" horiz-adv-x="1222" d="M134 580v684q0 60 -10 80t-24 24q-34 10 -63 26t-29 48q0 66 84 66h212q82 0 82 -66v-820q0 -216 61 -317t183 -101q118 0 190 89t72 325v892h240v-900q0 -318 -133 -452t-369 -134q-234 0 -365 138t-131 418z" />
<glyph unicode="V" horiz-adv-x="1136" d="M36 1376q-28 10 -44 23t-16 49q0 62 86 62h214l346 -1072l336 1072h140q56 0 72 -31t8 -69l-466 -1378h-204l-406 1202q-26 78 -38 106t-28 36z" />
<glyph unicode="W" horiz-adv-x="1556" d="M1330 32h-238l-250 1054l-256 -1054h-256l-226 1204q-16 76 -32 108t-36 38q-24 8 -41 23t-17 47q0 58 84 58h250l172 -1020l230 1020h260l230 -1016l164 1016h158q36 0 54 -20t16 -54z" />
<glyph unicode="X" horiz-adv-x="994" d="M368 796l-230 436q-40 78 -64 108t-40 36q-28 8 -46 22t-18 50q0 62 84 62h220l234 -466l256 466h148q48 0 65 -35t-1 -67l-338 -592l416 -780h-280l-276 520l-272 -520h-260z" />
<glyph unicode="Y" horiz-adv-x="1054" d="M562 962l320 548h140q52 0 64 -34t-2 -64l-404 -684v-692h-252v692l-304 504q-46 78 -62 106t-34 40q-20 14 -36 24t-16 42q0 66 86 66h190z" />
<glyph unicode="Z" horiz-adv-x="1046" d="M12 162l676 1180h-336q-80 0 -99 -35t-29 -107q-12 -60 -98 -60t-86 66l12 304h934v-126l-692 -1180h390q96 0 117 47t27 111q4 62 94 62t90 -66l-8 -322h-992v126z" />
<glyph unicode="[" horiz-adv-x="652" d="M370 12q0 -118 98 -118h84q52 0 52 -78q0 -76 -60 -76h-324q-68 0 -68 60v1798q0 60 68 60h324q60 0 60 -76q0 -78 -52 -78h-84q-98 0 -98 -116v-1376z" />
<glyph unicode="\" horiz-adv-x="1822" d="M1388 38h-220l-166 674h-158l-168 -674h-240l-124 674h-254v174h220l-54 294q-18 72 -33 101t-31 35q-26 8 -46 22t-20 50q0 54 84 54h246l92 -556h158l128 556h250l130 -556h152l88 556h152q30 0 50 -18t18 -54l-92 -484h228v-174h-260zM958 886l-34 142l-36 -142h70z M544 712l38 -222l50 222h-88zM1222 712l50 -216l34 216h-84z" />
<glyph unicode="]" horiz-adv-x="652" d="M280 12v1376q0 116 -98 116h-84q-50 0 -50 78q0 76 56 76h324q72 0 72 -60v-1798q0 -60 -66 -60h-302q-84 4 -84 80q0 74 50 74h84q98 0 98 118z" />
<glyph unicode="^" horiz-adv-x="866" d="M342 1558h186l298 -534h-222l-168 312l-174 -312h-226z" />
<glyph unicode="_" horiz-adv-x="922" d="M-30 -32h984v-164h-984v164z" />
<glyph unicode="`" horiz-adv-x="562" d="M132 1400q-32 50 -16 92t44 64q38 22 87 18t79 -54l106 -286q20 -66 -40 -95t-102 29z" />
<glyph unicode="a" horiz-adv-x="966" d="M656 106q-26 -20 -92 -52t-186 -32q-142 0 -234 83t-92 213q0 176 157 282t381 106h64v42q0 92 -52 145t-124 53q-64 0 -109 -34t-45 -132h-260q0 158 114 244t306 86q204 0 311 -101t107 -271v-702h-246v70zM654 536q-162 4 -258 -50t-96 -148q0 -80 38 -109t86 -29 q84 0 157 62t73 150v124z" />
<glyph unicode="b" horiz-adv-x="1024" d="M748 554q0 184 -63 283t-151 99q-74 0 -130 -73t-56 -199v-190q0 -162 58 -225t130 -63q78 0 145 94t67 274zM346 1038q86 72 220 72q212 0 322 -151t110 -399q0 -230 -116 -384t-334 -154q-150 0 -234 82q-48 -68 -166 -68h-48v1274q0 60 -10 82t-26 28q-34 12 -50 23 t-16 45q0 68 84 68h178q86 0 86 -66v-452z" />
<glyph unicode="c" horiz-adv-x="966" d="M874 98q-48 -36 -137 -59t-213 -17q-210 12 -354 163t-144 415q0 232 130 371t358 139q184 0 295 -89t119 -239h-254q0 88 -46 126t-124 38q-80 0 -150 -89t-70 -257q0 -184 84 -294t212 -120q44 -4 94 3t100 31q52 26 85 18t49 -36q10 -28 1 -57t-35 -47z" />
<glyph unicode="d" horiz-adv-x="1024" d="M276 554q0 -180 66 -273t138 -93q80 0 138 84t58 262v128q0 134 -58 204t-146 70q-72 0 -134 -93t-62 -289zM678 98q-82 -76 -206 -76q-222 0 -334 154t-112 384q0 248 112 399t316 151q138 0 224 -62v262q0 60 -10 83t-22 27q-34 8 -53 21t-19 51q0 64 86 64h178 q86 0 86 -66v-1454h-246v62z" />
<glyph unicode="e" horiz-adv-x="966" d="M284 514q8 -120 88 -219t208 -109q44 -4 94 3t98 31q60 28 91 17t47 -43q8 -26 -1 -55t-37 -47q-54 -32 -145 -54t-203 -16q-210 14 -354 164t-144 414q0 236 130 373t354 137q192 0 312 -126t120 -384v-86h-658zM284 682h408q0 134 -59 199t-129 65q-80 0 -147 -74 t-73 -190z" />
<glyph unicode="f" horiz-adv-x="688" d="M152 922h-168v162h168v206q0 126 79 203t229 77q160 0 238 -78t78 -212h-246q-2 74 -19 105t-51 31q-28 -2 -44 -33t-16 -113v-186h270v-162h-270v-886h-248v886z" />
<glyph unicode="g" horiz-adv-x="1024" d="M274 556q0 -158 65 -239t137 -81q86 0 144 71t58 227v128q0 134 -61 204t-145 70q-76 0 -137 -88t-61 -292zM680 136q-82 -66 -208 -66q-218 0 -332 146t-114 344q0 248 114 399t314 151q146 0 232 -80q22 54 104 54h148q88 0 88 -64q0 -34 -33 -46t-55 -18q-2 -2 -7 -15 t-5 -91v-752q0 -184 -108 -294t-338 -110q-220 0 -312 83t-98 235h248q4 -86 46 -122t126 -36q78 0 134 58t56 186v38z" />
<glyph unicode="h" horiz-adv-x="1024" d="M348 36h-248v1274q0 60 -10 81t-24 27q-32 12 -50 24t-18 46q0 68 84 68h180q86 0 86 -66v-516q22 24 52 46q100 80 224 80q144 0 233 -98t89 -330v-636h-248v640q0 140 -36 187t-84 47q-84 0 -178 -116q-30 -38 -52 -92v-666z" />
<glyph unicode="i" horiz-adv-x="460" d="M366 36h-250v802q0 62 -10 84t-22 28q-36 10 -54 24t-18 42q0 68 86 68h182q86 0 86 -72v-976zM374 1394q0 -64 -45 -109t-109 -45t-108 45t-44 109t44 111t108 47t109 -47t45 -111z" />
<glyph unicode="j" horiz-adv-x="526" d="M434 78q0 -212 -84 -298t-248 -86q-168 0 -247 79t-79 225h252q0 -104 25 -128t49 -24q38 0 60 43t22 189v764q0 60 -7 80t-19 24q-38 12 -58 25t-20 49q0 64 86 64h182q86 0 86 -68v-938zM448 1394q0 -64 -45 -109t-111 -45q-62 0 -106 45t-44 109t44 111t106 47 q66 0 111 -47t45 -111z" />
<glyph unicode="k" horiz-adv-x="912" d="M348 36h-248v1274q0 62 -8 83t-24 27q-28 8 -52 21t-24 51q0 64 84 64h186q86 0 86 -66v-734l318 328h286l-458 -448l496 -600h-288l-354 444v-444z" />
<glyph unicode="l" horiz-adv-x="460" d="M366 36h-250v1274q0 62 -9 83t-25 27q-32 12 -51 25t-19 49q0 62 86 62h182q86 0 86 -66v-1454z" />
<glyph unicode="m" horiz-adv-x="1462" d="M346 36h-246v802q0 62 -10 84t-22 28q-38 8 -54 22t-16 48q0 64 84 64h178q86 0 86 -72v-16q8 8 16 18q78 82 212 86q148 0 220 -100q18 -24 32 -56q18 32 44 60q88 96 220 96q152 0 223 -101t71 -319v-644h-246v638q0 138 -25 190t-69 52q-58 0 -136 -110 q-28 -36 -42 -82v-688h-246v638q0 140 -25 191t-65 51q-58 -2 -140 -110q-28 -34 -44 -80v-690z" />
<glyph unicode="n" horiz-adv-x="1024" d="M346 36h-244v802q0 64 -7 83t-23 25q-36 14 -58 26t-22 48q0 64 84 64h184q86 0 86 -72v-36q22 24 52 46q94 78 226 78q144 0 233 -98t89 -330v-636h-248v640q0 140 -36 187t-80 47q-90 -2 -178 -114q-34 -44 -58 -100v-660z" />
<glyph unicode="o" horiz-adv-x="1024" d="M22 564q0 240 125 393t363 153q240 0 366 -153t126 -393q0 -238 -126 -390t-366 -152q-238 0 -363 152t-125 390zM284 564q0 -196 70 -287t156 -91q88 0 159 91t71 287q0 198 -71 290t-159 92q-86 0 -156 -92t-70 -290z" />
<glyph unicode="p" horiz-adv-x="1024" d="M100 838q0 62 -10 83t-24 29q-32 10 -50 24t-18 44q0 66 84 66h178q76 0 84 -50q86 76 222 76q212 0 322 -151t110 -399q0 -230 -116 -384t-334 -154q-124 0 -202 58v-386h-246v1144zM748 554q0 184 -63 283t-151 99q-74 0 -130 -73t-56 -199v-190q0 -156 55 -222 t133 -66q76 0 144 94t68 274z" />
<glyph unicode="q" horiz-adv-x="1024" d="M276 554q0 -196 64 -277t134 -81q72 2 134 80t62 242v146q0 126 -57 199t-139 73t-140 -91t-58 -291zM676 106q-82 -84 -218 -84q-218 0 -325 155t-107 383q0 248 112 399t320 151q152 0 238 -88q6 16 16 32q40 56 102 56h110v-1416h-248v412z" />
<glyph unicode="r" horiz-adv-x="722" d="M122 838q0 64 -9 85t-23 27q-32 8 -53 23t-21 47q0 64 86 64h176q88 0 88 -72v-16q14 14 30 26q90 78 236 78h102v-224q-192 42 -308 -46q-34 -24 -60 -68v-726h-244v802z" />
<glyph unicode="s" horiz-adv-x="836" d="M368 506q-146 50 -235 127t-89 187q0 134 96 215t284 87q82 4 163 -13t159 -55v-242q-116 100 -187 123t-127 21q-66 0 -105 -28t-43 -86q-2 -50 57 -91t167 -83q162 -60 233 -136t71 -178q0 -154 -111 -243t-311 -89q-98 0 -183 27t-127 65q-44 38 -46 69t12 53 q30 42 76 45t86 -33q36 -26 88 -43t94 -17q98 4 143 52t33 118q-4 34 -44 72t-154 76z" />
<glyph unicode="t" horiz-adv-x="652" d="M378 1490v-406h270v-162h-268v-620q0 -72 25 -94t77 -22q28 0 55 1t129 27v-168q-68 -22 -131 -26t-97 -4q-102 0 -168 23t-94 67q-32 40 -37 101t-5 127v588h-144v162h144v154z" />
<glyph unicode="u" horiz-adv-x="1024" d="M942 36h-248v102l-20 -20q-98 -96 -252 -96q-138 0 -230 97t-92 313v408q0 62 -9 82t-19 24q-32 12 -53 25t-21 49q0 64 84 64h180q86 0 86 -66v-574q0 -140 36 -187t88 -47q96 0 176 96q26 32 46 84v448q0 64 -8 84t-30 30q-30 8 -48 22t-18 42q0 68 86 68h180 q86 0 86 -72v-976z" />
<glyph unicode="v" horiz-adv-x="932" d="M512 422l226 662h124q68 0 82 -34t6 -68l-356 -952h-172l-354 862q-14 32 -19 49t-23 23q-22 6 -37 18t-15 48q0 54 86 54h200z" />
<glyph unicode="w" horiz-adv-x="1272" d="M1030 30h-196l-188 624l-170 -624h-196l-224 862q-10 30 -17 49t-19 25q-18 10 -34 22t-16 38q0 58 82 58h200l136 -608l150 598h226l164 -602l148 612h134q40 0 59 -22t15 -60z" />
<glyph unicode="x" horiz-adv-x="884" d="M868 992l-280 -404l362 -552h-270l-232 350l-244 -350h-242l360 542l-184 280q-22 32 -46 66t-34 38q-36 18 -48 29t-12 43q0 50 88 50h178l196 -298l200 298h154q44 0 57 -32t-3 -60z" />
<glyph unicode="y" horiz-adv-x="872" d="M162 -298q-110 18 -168 95t-58 225h238q0 -66 5 -93t13 -39q14 -20 33 -22t25 -2q22 2 42 36t44 108l36 112l-266 686q-20 64 -39 107t-33 47q-28 8 -45 23t-17 41q0 58 86 58h212l222 -610l204 610h144q46 0 63 -30t9 -64l-360 -1028q-64 -186 -165 -235t-225 -25z" />
<glyph unicode="z" horiz-adv-x="892" d="M708 282q6 22 20 46t62 24q52 0 70 -22t18 -54l-14 -238h-848v120l542 768h-236q-56 0 -80 -14t-42 -60q-6 -18 -21 -42t-77 -24q-34 0 -49 21t-15 51l10 228h802v-120l-544 -766h240q80 0 115 21t47 61z" />
<glyph unicode="{" horiz-adv-x="832" d="M164 748q106 22 153 66t47 146q0 54 -34 211t18 257q54 94 142 153t210 69q58 2 70 -54t-58 -80q-48 -14 -92 -51t-60 -107q-24 -78 -5 -189t19 -163q0 -116 -42 -195t-104 -111q62 -34 104 -113t42 -195q0 -56 -19 -165t5 -187q16 -70 60 -109t92 -49q70 -24 58 -80 t-70 -54q-122 12 -210 68t-142 154q-52 100 -18 255t34 209q0 106 -47 150t-153 66v98z" />
<glyph unicode="|" horiz-adv-x="620" d="M212 1632h196v-1864h-196v1864z" />
<glyph unicode="}" horiz-adv-x="832" d="M668 650q-106 -22 -154 -66t-48 -150q0 -54 34 -209t-22 -255q-48 -98 -136 -154t-212 -68q-56 -2 -68 54t52 80q52 10 95 49t63 109q22 78 4 187t-18 165q0 116 42 195t104 113q-62 32 -104 111t-42 195q0 52 18 163t-4 189q-20 70 -63 107t-95 51q-64 24 -52 80t68 54 q124 -10 212 -69t136 -153q56 -100 22 -257t-34 -211q0 -102 48 -146t154 -66v-98z" />
<glyph unicode="~" horiz-adv-x="1090" d="M1024 1024q0 -226 -77 -329t-205 -103q-72 0 -132 29t-126 109q-58 72 -85 88t-43 16q-34 0 -61 -44t-29 -200h-198q0 228 80 331t204 103q74 0 132 -30t124 -106q46 -60 75 -82t51 -22q38 0 64 45t26 195h200z" />
<glyph unicode="&#xa0;" />
<glyph unicode="&#xa2;" horiz-adv-x="1718" d="M1206 124q-38 -18 -133 -46t-207 -22q-60 2 -112 13t-58 19l-64 -166l-154 54l78 198q-72 62 -125 178t-53 278q0 112 37 205t101 157q66 66 153 102t191 36q28 0 54 -2q14 -2 18 -4l60 150l162 -52l-62 -150q54 -26 105 -96t59 -176h-236q0 54 -8 83t-46 -115l-198 -510 q18 -18 56 -31t94 -17q16 -4 85 4t143 42q36 12 60 -2t34 -36q10 -24 1 -52t-35 -42zM842 978q-86 0 -161 -85t-75 -265q0 -90 15 -159t23 -81l228 588l-5 1t-25 1z" />
<glyph unicode="&#xa3;" horiz-adv-x="1718" d="M670 960h438v-144h-438v-584h322q46 0 73 18t43 48t22 65t6 81h244q0 -162 -86 -269t-266 -107h-818v164h236v584h-242v144h242v210q-4 74 19 154t71 146q52 64 133 105t197 41q166 0 265 -79t143 -235h-258q-6 92 -47 132t-103 40q-86 0 -141 -80t-55 -218v-216z" />
<glyph unicode="&#xa5;" horiz-adv-x="1718" d="M736 566v148h-468v154h404l-268 446q-22 30 -44 57t-40 31q-42 0 -63 21t-21 49q-6 22 15 43t39 21h240l330 -570l334 570h98q42 0 59 -16t17 -34q2 -18 -4 -32l-6 -14l-340 -572h408v-154h-468v-148h468v-160h-468v-338h-222v338h-468v160h468z" />
<glyph unicode="&#xa8;" horiz-adv-x="1090" d="M432 1494q0 -66 -47 -114t-113 -48t-113 48t-47 114t47 114t113 48t113 -48t47 -114zM976 1494q0 -66 -47 -114t-111 -48q-66 0 -113 48t-47 114t47 114t113 48q64 0 111 -48t47 -114z" />
<glyph unicode="&#xab;" horiz-adv-x="1718" d="M432 736l1066 -828l-78 -90l-1204 918l1204 918l78 -90zM794 736l876 -684l-74 -96l-1018 780l1016 778l80 -92z" />
<glyph unicode="&#xad;" horiz-adv-x="758" d="M64 898h630v-190h-630v190z" />
<glyph unicode="&#xae;" horiz-adv-x="1716" d="M1562 1318q0 110 -43 162t-155 52h-1038q-110 0 -153 -52t-43 -162v-1230q0 -106 43 -158t153 -52h1038q112 0 155 52t43 158v1230zM-4 1344q0 140 77 228t237 88h1070q162 0 240 -88t78 -228v-1282q0 -134 -78 -223t-240 -89h-1070q-160 0 -237 89t-77 223v1282z M648 1126l22 -37t22 -87q0 -68 -37 -121t-105 -75q-48 -12 -120 8t-110 96q-24 52 -22 123t56 149q72 102 195 156t311 54q272 0 414 -118t142 -292q0 -146 -111 -258t-291 -174q-136 -46 -235 -87t-141 -69l500 -2q26 0 50 25t38 71q10 20 26 35t58 15h122l-36 -498h-1126 v172q0 140 140 273t404 263q98 54 151 115t53 143t-51 123t-139 41q-74 0 -121 -17t-59 -27z" />
<glyph unicode="&#xb4;" horiz-adv-x="552" d="M428 1416l-176 -262h-156l132 374q16 46 70 58t94 -12q40 -22 52 -67t-16 -91z" />
<glyph unicode="&#xb8;" horiz-adv-x="552" d="M296 102h216v-240q0 -92 -75 -147t-181 -55q-70 -2 -130 20t-126 64l56 110q58 -36 87 -46t59 -10q46 0 70 16t24 60v228z" />
<glyph unicode="&#xbb;" horiz-adv-x="1718" d="M1264 736l-1062 828l74 90l1206 -918l-1206 -918l-74 90zM904 736l-876 686l76 92l1014 -778l-1014 -780l-74 96z" />
<glyph unicode="&#x2da;" horiz-adv-x="552" d="M472 1530q0 -86 -62 -147t-142 -61q-78 0 -138 61t-60 147t60 148t138 62q80 0 142 -62t62 -148zM326 1530q0 34 -21 54t-37 20q-14 0 -33 -20t-19 -54q0 -32 19 -53t33 -21q16 0 37 21t21 53z" />
<glyph unicode="&#x2dc;" horiz-adv-x="1718" d="M512 600h-194v134q0 124 79 208t207 88q60 4 121 -24t109 -66l176 -160q26 -26 59 -42t57 -16q48 0 75 36t27 108v102h192v-154q0 -40 -18 -88t-48 -92q-38 -46 -94 -75t-140 -29q-60 0 -120 28t-98 62l-184 166q-24 22 -55 37t-53 15q-32 0 -65 -23t-33 -109v-106z" />
<glyph unicode="&#x2000;" horiz-adv-x="870" />
<glyph unicode="&#x2001;" horiz-adv-x="1740" />
<glyph unicode="&#x2002;" horiz-adv-x="870" />
<glyph unicode="&#x2003;" horiz-adv-x="1740" />
<glyph unicode="&#x2004;" horiz-adv-x="580" />
<glyph unicode="&#x2005;" horiz-adv-x="435" />
<glyph unicode="&#x2006;" horiz-adv-x="290" />
<glyph unicode="&#x2007;" horiz-adv-x="290" />
<glyph unicode="&#x2008;" horiz-adv-x="217" />
<glyph unicode="&#x2009;" horiz-adv-x="348" />
<glyph unicode="&#x200a;" horiz-adv-x="96" />
<glyph unicode="&#x2010;" horiz-adv-x="758" d="M64 898h630v-190h-630v190z" />
<glyph unicode="&#x2011;" horiz-adv-x="758" d="M64 898h630v-190h-630v190z" />
<glyph unicode="&#x2012;" horiz-adv-x="758" d="M64 898h630v-190h-630v190z" />
<glyph unicode="&#x2013;" horiz-adv-x="774" d="M694 644h-636v140h636v-140z" />
<glyph unicode="&#x2014;" horiz-adv-x="1718" d="M-18 666v140h1740v-140h-1740z" />
<glyph unicode="&#x2018;" horiz-adv-x="574" d="M426 1266q0 -66 -47 -113t-115 -47q-66 0 -114 47t-56 105q-14 108 40 215t156 163q58 30 93 -3t-21 -75q-28 -24 -49 -57t-27 -71q-2 -16 16 -16q40 -2 82 -44t42 -104z" />
<glyph unicode="&#x2019;" horiz-adv-x="574" d="M110 1522q0 66 47 113t115 47q66 0 114 -47t56 -105q14 -108 -40 -214t-156 -162q-58 -30 -93 2t21 76q28 22 49 56t27 70q2 18 -14 18q-42 2 -84 44t-42 102z" />
<glyph unicode="&#x201c;" horiz-adv-x="908" d="M432 1266q0 -66 -47 -113t-115 -47q-66 0 -114 47t-56 105q-14 108 40 215t156 163q58 30 93 -3t-21 -75q-28 -24 -48 -57t-28 -71q-2 -16 16 -16q40 -2 82 -44t42 -104zM802 1266q0 -66 -47 -113t-113 -47t-114 47t-56 105q-16 108 39 215t157 163q56 30 91 -3t-19 -75 q-30 -24 -50 -57t-26 -71q-2 -16 14 -16q40 -2 82 -44t42 -104z" />
<glyph unicode="&#x201d;" horiz-adv-x="908" d="M476 1522q0 66 47 113t113 47t114 -47t56 -105q16 -108 -39 -214t-157 -162q-58 -30 -92 2t20 76q30 22 50 56t26 70q2 18 -14 18q-40 2 -82 44t-42 102zM104 1522q0 66 47 113t115 47q66 0 114 -47t56 -105q14 -108 -40 -214t-156 -162q-58 -30 -93 2t21 76q28 22 49 56 t27 70q2 18 -14 18q-42 2 -84 44t-42 102z" />
<glyph unicode="&#x2022;" horiz-adv-x="1718" d="M846 984q100 0 167 -74t67 -174q0 -102 -67 -177t-167 -75q-98 0 -164 75t-66 177q0 100 66 174t164 74z" />
<glyph unicode="&#x2026;" horiz-adv-x="1626" d="M430 706q0 -66 -47 -114t-113 -48t-113 48t-47 114q0 64 47 113t113 49t113 -49t47 -113zM970 706q0 -66 -47 -114t-111 -48q-66 0 -113 48t-47 114q0 64 47 113t113 49q64 0 111 -49t47 -113zM1512 706q0 -66 -47 -114t-113 -48t-113 48t-47 114q0 64 47 113t113 49 t113 -49t47 -113z" />
<glyph unicode="&#x202f;" horiz-adv-x="348" />
<glyph unicode="&#x2039;" horiz-adv-x="1718" d="M1658 1698v-128l-1186 -834l1186 -832v-134l-1410 966z" />
<glyph unicode="&#x203a;" horiz-adv-x="1718" d="M38 1698l1410 -962l-1410 -966v132l1186 834l-1186 834v128z" />
<glyph unicode="&#x205f;" horiz-adv-x="435" />
<glyph unicode="&#x20ac;" horiz-adv-x="1716" d="M668 1050h-210v170l396 150h60q60 0 88 -17t28 -41v-990q0 -44 12 -59t42 -19q46 -6 87 -24t41 -74v-110h-724v110q0 56 39 74t89 24q20 4 36 19t16 57v730zM1562 1318q0 110 -43 162t-155 52h-1038q-110 0 -153 -52t-43 -162v-1230q0 -106 43 -158t153 -52h1038 q112 0 155 52t43 158v1230zM-4 1344q0 140 77 228t237 88h1070q162 0 240 -88t78 -228v-1282q0 -134 -78 -223t-240 -89h-1070q-160 0 -237 89t-77 223v1282z" />
<glyph unicode="&#x2122;" horiz-adv-x="1716" d="M218 1368q-46 0 -60 -22t-16 -56q0 -54 -58 -54t-58 54l8 228h722v-10q16 10 44 10h292l138 -626l146 626h258v-906h-192v530l-124 -530h-190l-122 520v-520h-178v712q0 46 -7 64t-21 20q-24 4 -40 12l4 -130q0 -54 -57 -54t-57 54q-2 34 -17 56t-59 22h-82v-754h-192 v754h-82z" />
<glyph unicode="&#x25fc;" horiz-adv-x="1080" d="M0 1080h1080v-1080h-1080v1080z" />
</font>
</defs>
</svg>
