<svg width="67" height="27" viewBox="0 0 67 27" fill="none" xmlns="http://www.w3.org/2000/svg">
<path fill-rule="evenodd" clip-rule="evenodd" d="M30.9007 20.9186V13.2044H35.0793C36.7916 13.2044 38.2368 12.6578 39.415 11.5796L39.6977 11.3063C41.8499 9.074 41.7085 5.59654 39.415 3.53132C38.2682 2.43797 36.6973 1.84574 35.0793 1.87611H28.3716V20.9186H30.9007ZM30.9011 10.8657V4.2145H35.1432C36.0544 4.2145 36.9186 4.54857 37.5627 5.15599C38.9296 6.43157 38.9611 8.55752 37.6413 9.87865C36.9971 10.5316 36.0859 10.8961 35.1432 10.8657H30.9011ZM51.4952 8.90684C50.4113 7.95016 48.9347 7.46423 47.0653 7.46423C44.6618 7.46423 42.8553 8.31461 41.6614 10.0002L43.8921 11.3517C44.709 10.1976 45.8243 9.62055 47.2381 9.62055C48.1335 9.62055 48.9975 9.93945 49.673 10.5165C50.3328 11.0632 50.7098 11.8528 50.7098 12.688V13.2499C49.7358 12.7336 48.5105 12.4602 47.0025 12.4602C45.2431 12.4602 43.8293 12.855 42.7768 13.6599C41.7243 14.4647 41.1902 15.5277 41.1902 16.8792C41.1587 18.1092 41.7086 19.2785 42.6825 20.0681C43.6722 20.9185 44.9289 21.3437 46.4055 21.3437C48.1492 21.3437 49.5316 20.5996 50.5841 19.1114H50.6941V20.9185H53.1133V12.8854C53.1133 11.1998 52.5792 9.86352 51.4952 8.90684ZM44.6309 18.5193C44.1124 18.1548 43.7982 17.5626 43.7982 16.9248C43.7982 16.2111 44.1438 15.6188 44.8194 15.1481C45.5107 14.6774 46.3748 14.4344 47.3961 14.4344C48.8101 14.4192 49.9099 14.7229 50.6955 15.3303C50.6955 16.3629 50.2713 17.2589 49.4386 18.0181C48.6844 18.747 47.6632 19.157 46.5948 19.157C45.8878 19.1722 45.1965 18.9445 44.6309 18.5193ZM58.5486 26.6434L67.0001 7.8894H64.251L60.3394 17.2436H60.2923L56.2865 7.8894H53.5375L59.0827 20.0833L55.9409 26.6434H58.5486Z" fill="white"/>
<path d="M22.1692 11.534C22.1692 10.7899 22.1064 10.0458 21.9807 9.31689H11.3143V13.5233H17.4251C17.1738 14.8748 16.3569 16.0896 15.163 16.8489V19.5822H18.8075C20.9439 17.6841 22.1692 14.8748 22.1692 11.534Z" fill="white"/>
<path d="M11.3147 22.2246C14.3623 22.2246 16.9385 21.2528 18.8079 19.5824L15.1634 16.849C14.1424 17.5172 12.8385 17.8968 11.3147 17.8968C8.36145 17.8968 5.86372 15.9682 4.96831 13.3867H1.21387V16.2112C3.13036 19.9013 7.0419 22.2246 11.3147 22.2246Z" fill="white"/>
<path d="M4.96875 13.3867C4.49741 12.0352 4.49741 10.5622 4.96875 9.19553V6.38623H1.21371C-0.40457 9.46887 -0.40457 13.1134 1.21371 16.196L4.96875 13.3867Z" fill="white"/>
<path d="M11.3147 4.68544C12.9328 4.65507 14.4879 5.2473 15.6504 6.32546L18.8865 3.19727C16.8286 1.34465 14.1266 0.327224 11.3147 0.357594C7.04189 0.357594 3.13036 2.69615 1.21387 6.3862L4.96831 9.21069C5.86372 6.61398 8.36145 4.68544 11.3147 4.68544Z" fill="white"/>
</svg>
