<svg width="40" height="31" viewBox="0 0 40 31" fill="none" xmlns="http://www.w3.org/2000/svg">
<path fill-rule="evenodd" clip-rule="evenodd" d="M11.2994 27.6378V29.2777V30.9175H10.5858V30.5193C10.3594 30.8147 10.016 31 9.54911 31C8.62878 31 7.9073 30.2798 7.9073 29.2777C7.9073 28.2763 8.62878 27.5553 9.54911 27.5553C10.016 27.5553 10.3594 27.7407 10.5858 28.036V27.6378H11.2994ZM9.6379 28.2276C9.02016 28.2276 8.64213 28.7012 8.64213 29.2776C8.64213 29.8541 9.02016 30.3277 9.6379 30.3277C10.2281 30.3277 10.6266 29.8745 10.6266 29.2776C10.6266 28.6808 10.2281 28.2276 9.6379 28.2276ZM35.4149 29.2776C35.4149 28.7012 35.793 28.2276 36.4107 28.2276C37.0017 28.2276 37.3994 28.6808 37.3994 29.2776C37.3994 29.8745 37.0017 30.3277 36.4107 30.3277C35.793 30.3277 35.4149 29.8541 35.4149 29.2776ZM38.0729 26.3207V29.2777V30.9175H37.3585V30.5193C37.1322 30.8147 36.7887 31 36.3219 31C35.4016 31 34.6801 30.2798 34.6801 29.2777C34.6801 28.2763 35.4016 27.5553 36.3219 27.5553C36.7887 27.5553 37.1322 27.7407 37.3585 28.036V26.3207H38.0729ZM20.1576 28.1938C20.6174 28.1938 20.9129 28.4821 20.9883 28.9894H19.2852C19.3615 28.5158 19.6491 28.1938 20.1576 28.1938ZM18.537 29.2777C18.537 28.2551 19.2098 27.5553 20.1718 27.5553C21.0913 27.5553 21.7232 28.2551 21.7303 29.2777C21.7303 29.3735 21.7232 29.463 21.7161 29.5518H19.2789C19.3819 30.1424 19.8008 30.3552 20.2606 30.3552C20.5899 30.3552 20.9404 30.2311 21.2155 30.012L21.5652 30.5406C21.1667 30.8767 20.7141 31 20.2197 31C19.2373 31 18.537 30.3206 18.537 29.2777ZM28.7887 29.2776C28.7887 28.7012 29.1668 28.2276 29.7845 28.2276C30.3747 28.2276 30.7732 28.6808 30.7732 29.2776C30.7732 29.8745 30.3747 30.3277 29.7845 30.3277C29.1668 30.3277 28.7887 29.8541 28.7887 29.2776ZM31.446 27.6378V29.2777V30.9175H30.7324V30.5193C30.5052 30.8147 30.1626 31 29.6957 31C28.7754 31 28.0539 30.2798 28.0539 29.2777C28.0539 28.2763 28.7754 27.5553 29.6957 27.5553C30.1626 27.5553 30.5052 27.7407 30.7324 28.036V27.6378H31.446ZM24.7584 29.2777C24.7584 30.2727 25.4516 31 26.5095 31C27.0038 31 27.3331 30.89 27.6899 30.6089L27.3473 30.0324C27.0793 30.2248 26.7979 30.3277 26.4883 30.3277C25.9185 30.3206 25.4996 29.9091 25.4996 29.2777C25.4996 28.6462 25.9185 28.2347 26.4883 28.2276C26.7979 28.2276 27.0793 28.3305 27.3473 28.5229L27.6899 27.9464C27.3331 27.6653 27.0038 27.5553 26.5095 27.5553C25.4516 27.5553 24.7584 28.2826 24.7584 29.2777ZM33.0939 28.036C33.2794 27.7477 33.5474 27.5553 33.9593 27.5553C34.1039 27.5553 34.3098 27.5828 34.4678 27.6449L34.2477 28.3171C34.0968 28.2551 33.9459 28.2347 33.8013 28.2347C33.3344 28.2347 33.101 28.5363 33.101 29.079V30.9175H32.3866V27.6378H33.0939V28.036ZM14.8289 27.8985C14.4855 27.6723 14.0124 27.5553 13.4905 27.5553C12.659 27.5553 12.1238 27.9535 12.1238 28.6054C12.1238 29.1402 12.5222 29.4701 13.2563 29.573L13.5935 29.6209C13.9849 29.6758 14.1695 29.7787 14.1695 29.9641C14.1695 30.2178 13.9086 30.3623 13.4213 30.3623C12.927 30.3623 12.5702 30.2044 12.3297 30.0191L11.9933 30.5743C12.3847 30.8626 12.879 31 13.4143 31C14.3621 31 14.9115 30.5539 14.9115 29.9295C14.9115 29.3531 14.4792 29.0515 13.7648 28.9486L13.4284 28.8999C13.1195 28.8591 12.872 28.7978 12.872 28.5779C12.872 28.3376 13.1054 28.1938 13.4968 28.1938C13.9157 28.1938 14.3212 28.3517 14.5201 28.475L14.8289 27.8985ZM23.1725 28.036C23.3571 27.7477 23.6252 27.5553 24.037 27.5553C24.1816 27.5553 24.3875 27.5828 24.5455 27.6449L24.3254 28.3171C24.1745 28.2551 24.0236 28.2347 23.879 28.2347C23.4122 28.2347 23.1787 28.5363 23.1787 29.079V30.9175H22.4651V27.6378H23.1725V28.036ZM17.9467 27.6378H16.7796V26.6427H16.0581V27.6378H15.3924V28.2897H16.0581V29.7858C16.0581 30.5468 16.3536 31 17.1977 31C17.5073 31 17.8641 30.9042 18.0905 30.7463L17.8846 30.1353C17.6716 30.2586 17.4382 30.3206 17.2527 30.3206C16.8959 30.3206 16.7796 30.1007 16.7796 29.7717V28.2897H17.9467V27.6378ZM7.27615 28.8591V30.9175H6.55466V29.0923C6.55466 28.5363 6.32124 28.2276 5.83396 28.2276C5.36005 28.2276 5.03074 28.53 5.03074 29.0994V30.9175H4.30926V29.0923C4.30926 28.5363 4.06955 28.2276 3.59563 28.2276C3.10757 28.2276 2.79162 28.53 2.79162 29.0994V30.9175H2.07092L2.07092 27.6378H2.78533V28.0423C3.05334 27.6582 3.396 27.5553 3.74653 27.5553C4.24795 27.5553 4.60477 27.7752 4.83111 28.1389C5.1337 27.6786 5.56596 27.5483 5.98486 27.5553C6.7818 27.5624 7.27615 28.0839 7.27615 28.8591Z" fill="white"/>
<path d="M25.4083 22.0649H14.5923V2.64087H25.4083V22.0649Z" fill="#FF5F00"/>
<path d="M15.2785 12.3533C15.2785 8.41308 17.1247 4.90322 19.9996 2.64133C17.8972 0.987318 15.2439 9.79576e-05 12.3603 9.79576e-05C5.53374 9.79576e-05 0 5.53073 0 12.3533C0 19.1759 5.53374 24.7065 12.3603 24.7065C15.2439 24.7065 17.8972 23.7193 19.9996 22.0653C17.1247 19.8034 15.2785 16.2936 15.2785 12.3533" fill="#EB001B"/>
<path d="M40 12.3533C40 19.1759 34.4663 24.7065 27.6397 24.7065C24.7561 24.7065 22.1028 23.7193 19.9996 22.0653C22.8754 19.8034 24.7215 16.2936 24.7215 12.3533C24.7215 8.41308 22.8754 4.90322 19.9996 2.64133C22.1028 0.987318 24.7561 9.79576e-05 27.6397 9.79576e-05C34.4663 9.79576e-05 40 5.53073 40 12.3533" fill="#F79E1B"/>
</svg>
