<svg width="40" height="40" viewBox="0 0 40 40" fill="none" xmlns="http://www.w3.org/2000/svg">
<path d="M25.1215 3.33325H14.8958C5.5555 3.33325 3.33331 5.55544 3.33331 14.8784V25.1041C3.33331 34.4443 5.53821 36.6666 14.8784 36.6666H25.1041C34.4445 36.6666 36.6666 34.4617 36.6666 25.1214V14.8958C36.6666 5.55544 34.4617 3.33325 25.1215 3.33325ZM30.243 27.1179H27.8125C26.8924 27.1179 26.6146 26.3714 24.9653 24.7221C23.5242 23.3333 22.9166 23.1596 22.5521 23.1596C22.0486 23.1596 21.9097 23.2985 21.9097 23.9929V26.1804C21.9097 26.7708 21.7187 27.1179 20.1736 27.1179C18.6743 27.0172 17.2203 26.5617 15.9314 25.789C14.6426 25.0163 13.5557 23.9485 12.7604 22.6735C10.8722 20.3233 9.55849 17.565 8.92363 14.6179C8.92363 14.2534 9.06248 13.9235 9.75696 13.9235H12.1875C12.8125 13.9235 13.0382 14.2013 13.2812 14.8437C14.4617 18.3159 16.4757 21.3367 17.2916 21.3367C17.6041 21.3367 17.743 21.1978 17.743 20.4166V16.8401C17.6388 15.2083 16.7708 15.0693 16.7708 14.4791C16.7822 14.3234 16.8539 14.1782 16.9706 14.0745C17.0873 13.9708 17.2398 13.9166 17.3958 13.9235H21.2153C21.7361 13.9235 21.9097 14.1839 21.9097 14.8089V19.6353C21.9097 20.1562 22.1354 20.3297 22.2916 20.3297C22.6041 20.3297 22.8472 20.1562 23.4201 19.5833C24.6512 18.0819 25.6572 16.4092 26.4062 14.6179C26.4827 14.4024 26.6276 14.2178 26.8189 14.0924C27.0101 13.967 27.2371 13.9077 27.4653 13.9235H29.8958C30.625 13.9235 30.7812 14.2881 30.625 14.8089C29.7406 16.7894 28.6464 18.6694 27.3611 20.4166C27.1007 20.8159 26.9965 21.0242 27.3611 21.4929C27.6041 21.8575 28.4549 22.5693 29.0278 23.2464C29.8611 24.0776 30.5531 25.0394 31.0763 26.0937C31.2847 26.7708 30.9375 27.1179 30.243 27.1179V27.1179Z" fill="white"/>
</svg>
